<svg xmlns="http://www.w3.org/2000/svg" xmlns:xlink="http://www.w3.org/1999/xlink" contentStyleType="text/css" height="371px" preserveAspectRatio="none" style="width:782px;height:371px;background:#FFFFFF;" version="1.1" viewBox="0 0 782 371" width="782px" zoomAndPan="magnify"><defs/><g><ellipse cx="412.895" cy="20" fill="#222222" rx="10" ry="10" style="stroke:#222222;stroke-width:1.0;"/><rect fill="#F1F1F1" height="35.0938" rx="12.5" ry="12.5" style="stroke:#181818;stroke-width:0.5;" width="216.7637" x="304.5132" y="50"/><text fill="#000000" font-family="sans-serif" font-size="12" lengthAdjust="spacing" textLength="196.7637" x="314.5132" y="72.457">User enters username and password</text><rect fill="#F1F1F1" height="35.0938" rx="12.5" ry="12.5" style="stroke:#181818;stroke-width:0.5;" width="182.0703" x="321.8599" y="105.0938"/><text fill="#000000" font-family="sans-serif" font-size="12" lengthAdjust="spacing" textLength="162.0703" x="331.8599" y="127.5508">System checks the credentials</text><polygon fill="#F1F1F1" points="351.1382,160.1875,474.6519,160.1875,486.6519,172.1875,474.6519,184.1875,351.1382,184.1875,339.1382,172.1875,351.1382,160.1875" style="stroke:#181818;stroke-width:0.5;"/><text fill="#000000" font-family="sans-serif" font-size="11" lengthAdjust="spacing" textLength="123.5137" x="351.1382" y="176.6885">Are the credentials valid?</text><text fill="#000000" font-family="sans-serif" font-size="11" lengthAdjust="spacing" textLength="17.1177" x="322.0205" y="169.7705">yes</text><text fill="#000000" font-family="sans-serif" font-size="11" lengthAdjust="spacing" textLength="12.2354" x="486.6519" y="169.7705">no</text><rect fill="#F1F1F1" height="35.0938" rx="12.5" ry="12.5" style="stroke:#181818;stroke-width:0.5;" width="159.916" x="130.6387" y="194.1875"/><text fill="#000000" font-family="sans-serif" font-size="12" lengthAdjust="spacing" textLength="139.916" x="140.6387" y="216.6445">Display "Login successful"</text><polygon fill="#F1F1F1" points="157.7048,249.2813,263.4885,249.2813,275.4885,261.2813,263.4885,273.2813,157.7048,273.2813,145.7048,261.2813,157.7048,249.2813" style="stroke:#181818;stroke-width:0.5;"/><text fill="#000000" font-family="sans-serif" font-size="11" lengthAdjust="spacing" textLength="105.7837" x="157.7048" y="265.7822">Is the user an admin?</text><text fill="#000000" font-family="sans-serif" font-size="11" lengthAdjust="spacing" textLength="17.1177" x="128.5872" y="258.8643">yes</text><text fill="#000000" font-family="sans-serif" font-size="11" lengthAdjust="spacing" textLength="12.2354" x="275.4885" y="258.8643">no</text><rect fill="#F1F1F1" height="35.0938" rx="12.5" ry="12.5" style="stroke:#181818;stroke-width:0.5;" width="180.0898" x="11" y="283.2813"/><text fill="#000000" font-family="sans-serif" font-size="12" lengthAdjust="spacing" textLength="160.0898" x="21" y="305.7383">Navigate to Admin Dashboard</text><ellipse cx="101.0449" cy="349.375" fill="none" rx="11" ry="11" style="stroke:#222222;stroke-width:1.0;"/><ellipse cx="101.0449" cy="349.375" fill="#222222" rx="6" ry="6" style="stroke:#222222;stroke-width:1.0;"/><rect fill="#F1F1F1" height="35.0938" rx="12.5" ry="12.5" style="stroke:#181818;stroke-width:0.5;" width="218.1172" x="211.0898" y="283.2813"/><text fill="#000000" font-family="sans-serif" font-size="12" lengthAdjust="spacing" textLength="198.1172" x="221.0898" y="305.7383">Navigate to Template Selection Page</text><ellipse cx="320.1484" cy="349.375" fill="none" rx="11" ry="11" style="stroke:#222222;stroke-width:1.0;"/><ellipse cx="320.1484" cy="349.375" fill="#222222" rx="6" ry="6" style="stroke:#222222;stroke-width:1.0;"/><rect fill="#F1F1F1" height="35.0938" rx="12.5" ry="12.5" style="stroke:#181818;stroke-width:0.5;" width="311.9727" x="459.207" y="194.1875"/><text fill="#000000" font-family="sans-serif" font-size="12" lengthAdjust="spacing" textLength="291.9727" x="469.207" y="216.6445">Display error message "Invalid username or password"</text><ellipse cx="615.1934" cy="260.2813" fill="none" rx="11" ry="11" style="stroke:#222222;stroke-width:1.0;"/><ellipse cx="615.1934" cy="260.2813" fill="#222222" rx="6" ry="6" style="stroke:#222222;stroke-width:1.0;"/><line style="stroke:#181818;stroke-width:1.0;" x1="412.895" x2="412.895" y1="30" y2="50"/><polygon fill="#181818" points="408.895,40,412.895,50,416.895,40,412.895,44" style="stroke:#181818;stroke-width:1.0;"/><line style="stroke:#181818;stroke-width:1.0;" x1="412.895" x2="412.895" y1="85.0938" y2="105.0938"/><polygon fill="#181818" points="408.895,95.0938,412.895,105.0938,416.895,95.0938,412.895,99.0938" style="stroke:#181818;stroke-width:1.0;"/><line style="stroke:#181818;stroke-width:1.0;" x1="101.0449" x2="101.0449" y1="318.375" y2="338.375"/><polygon fill="#181818" points="97.0449,328.375,101.0449,338.375,105.0449,328.375,101.0449,332.375" style="stroke:#181818;stroke-width:1.0;"/><line style="stroke:#181818;stroke-width:1.0;" x1="320.1484" x2="320.1484" y1="318.375" y2="338.375"/><polygon fill="#181818" points="316.1484,328.375,320.1484,338.375,324.1484,328.375,320.1484,332.375" style="stroke:#181818;stroke-width:1.0;"/><line style="stroke:#181818;stroke-width:1.0;" x1="145.7048" x2="101.0449" y1="261.2813" y2="261.2813"/><line style="stroke:#181818;stroke-width:1.0;" x1="101.0449" x2="101.0449" y1="261.2813" y2="283.2813"/><polygon fill="#181818" points="97.0449,273.2813,101.0449,283.2813,105.0449,273.2813,101.0449,277.2813" style="stroke:#181818;stroke-width:1.0;"/><line style="stroke:#181818;stroke-width:1.0;" x1="275.4885" x2="320.1484" y1="261.2813" y2="261.2813"/><line style="stroke:#181818;stroke-width:1.0;" x1="320.1484" x2="320.1484" y1="261.2813" y2="283.2813"/><polygon fill="#181818" points="316.1484,273.2813,320.1484,283.2813,324.1484,273.2813,320.1484,277.2813" style="stroke:#181818;stroke-width:1.0;"/><line style="stroke:#181818;stroke-width:1.0;" x1="210.5967" x2="210.5967" y1="229.2813" y2="249.2813"/><polygon fill="#181818" points="206.5967,239.2813,210.5967,249.2813,214.5967,239.2813,210.5967,243.2813" style="stroke:#181818;stroke-width:1.0;"/><line style="stroke:#181818;stroke-width:1.0;" x1="615.1934" x2="615.1934" y1="229.2813" y2="249.2813"/><polygon fill="#181818" points="611.1934,239.2813,615.1934,249.2813,619.1934,239.2813,615.1934,243.2813" style="stroke:#181818;stroke-width:1.0;"/><line style="stroke:#181818;stroke-width:1.0;" x1="339.1382" x2="210.5967" y1="172.1875" y2="172.1875"/><line style="stroke:#181818;stroke-width:1.0;" x1="210.5967" x2="210.5967" y1="172.1875" y2="194.1875"/><polygon fill="#181818" points="206.5967,184.1875,210.5967,194.1875,214.5967,184.1875,210.5967,188.1875" style="stroke:#181818;stroke-width:1.0;"/><line style="stroke:#181818;stroke-width:1.0;" x1="486.6519" x2="615.1934" y1="172.1875" y2="172.1875"/><line style="stroke:#181818;stroke-width:1.0;" x1="615.1934" x2="615.1934" y1="172.1875" y2="194.1875"/><polygon fill="#181818" points="611.1934,184.1875,615.1934,194.1875,619.1934,184.1875,615.1934,188.1875" style="stroke:#181818;stroke-width:1.0;"/><line style="stroke:#181818;stroke-width:1.0;" x1="412.895" x2="412.895" y1="140.1875" y2="160.1875"/><polygon fill="#181818" points="408.895,150.1875,412.895,160.1875,416.895,150.1875,412.895,154.1875" style="stroke:#181818;stroke-width:1.0;"/><!--SRC=[RL3BQiCm4BphAmQVd5-m3oMGIw2KGjeFs4fhMrIMZ5PEyTztvT1Nw6tOsPcTMIcKY-bUXJCu5iw2LN6acK7HOI6HZvHTRxhB9eLds8djkw1C39lPgSXJaDuOFw0zPhvdSANWtSEXpYFQZULWWExaPGcqeNbCeu-GrLeM6TRGz4fNh_FjI8sZKK1kzl7UHesUwEf7AdetuLXtS2APtXBLq7L3IbeKS1166zC_iXUUDOlY2mUsnQU8PnhvhpmwFvZV9jyLEEUKCMjy5Q4vnxtnpn-L_7hZNcvtlFbz0W00]--></g></svg>