<svg xmlns="http://www.w3.org/2000/svg" xmlns:xlink="http://www.w3.org/1999/xlink" contentStyleType="text/css" height="515px" preserveAspectRatio="none" style="width:647px;height:515px;background:#FFFFFF;" version="1.1" viewBox="0 0 647 515" width="647px" zoomAndPan="magnify"><defs/><g><ellipse cx="333.9717" cy="20" fill="#222222" rx="10" ry="10" style="stroke:#222222;stroke-width:1.0;"/><rect fill="#F1F1F1" height="35.0938" rx="12.5" ry="12.5" style="stroke:#181818;stroke-width:0.5;" width="182.5859" x="242.6787" y="50"/><text fill="#000000" font-family="sans-serif" font-size="12" lengthAdjust="spacing" textLength="162.5859" x="252.6787" y="72.457">Display "Dynamic Table Page"</text><rect fill="#F1F1F1" height="35.0938" rx="12.5" ry="12.5" style="stroke:#181818;stroke-width:0.5;" width="140.7324" x="263.6055" y="105.0938"/><text fill="#000000" font-family="sans-serif" font-size="12" lengthAdjust="spacing" textLength="120.7324" x="273.6055" y="127.5508">Show app bar with title</text><path d="M447.3447,156.3828 L447.3447,173.7344 L427.3447,177.7344 L447.3447,181.7344 L447.3447,199.0859 A0,0 0 0 0 447.3447,199.0859 L635.269,199.0859 A0,0 0 0 0 635.269,199.0859 L635.269,166.3828 L625.269,156.3828 L447.3447,156.3828 A0,0 0 0 0 447.3447,156.3828 " fill="#FEFFDD" style="stroke:#181818;stroke-width:0.5;"/><path d="M625.269,156.3828 L625.269,166.3828 L635.269,166.3828 L625.269,156.3828 " fill="#FEFFDD" style="stroke:#181818;stroke-width:0.5;"/><text fill="#000000" font-family="sans-serif" font-size="13" lengthAdjust="spacing" textLength="147.4116" x="453.3447" y="174.8779">- Table headers and rows</text><text fill="#000000" font-family="sans-serif" font-size="13" lengthAdjust="spacing" textLength="166.9243" x="453.3447" y="191.2295">- Input fields for placeholders</text><rect fill="#F1F1F1" height="35.0938" rx="12.5" ry="12.5" style="stroke:#181818;stroke-width:0.5;" width="186.7461" x="240.5986" y="160.1875"/><text fill="#000000" font-family="sans-serif" font-size="12" lengthAdjust="spacing" textLength="166.7461" x="250.5986" y="182.6445">Render dynamic table structure</text><rect fill="#F1F1F1" height="35.0938" rx="12.5" ry="12.5" style="stroke:#181818;stroke-width:0.5;" width="132.5703" x="267.6865" y="219.0859"/><text fill="#000000" font-family="sans-serif" font-size="12" lengthAdjust="spacing" textLength="112.5703" x="277.6865" y="241.543">Display "Next" button</text><path d="M10,264.1797 L10,306.8828 L236.061,306.8828 L236.061,274.1797 L226.061,264.1797 L10,264.1797 " fill="#FEFFDD" style="stroke:#181818;stroke-width:0.5;"/><path d="M226.061,264.1797 L226.061,274.1797 L236.061,274.1797 L226.061,264.1797 " fill="#FEFFDD" style="stroke:#181818;stroke-width:0.5;"/><text fill="#000000" font-family="sans-serif" font-size="13" lengthAdjust="spacing" textLength="205.061" x="16" y="282.6748">"Next" button remains disabled until</text><text fill="#000000" font-family="sans-serif" font-size="13" lengthAdjust="spacing" textLength="179.937" x="16" y="299.0264">all placeholders are completed.</text><rect fill="#F1F1F1" height="35.0938" rx="12.5" ry="12.5" style="stroke:#181818;stroke-width:0.5;" width="130.5898" x="268.6768" y="355.8008"/><text fill="#000000" font-family="sans-serif" font-size="12" lengthAdjust="spacing" textLength="110.5898" x="278.6768" y="378.2578">Enable "Next" button</text><ellipse cx="333.9717" cy="429.8477" fill="none" rx="11" ry="11" style="stroke:#222222;stroke-width:1.0;"/><ellipse cx="333.9717" cy="429.8477" fill="#222222" rx="6" ry="6" style="stroke:#222222;stroke-width:1.0;"/><polygon fill="#F1F1F1" points="248.061,306.8828,419.8823,306.8828,431.8823,318.8828,419.8823,330.8828,248.061,330.8828,236.061,318.8828,248.061,306.8828" style="stroke:#181818;stroke-width:0.5;"/><text fill="#000000" font-family="sans-serif" font-size="11" lengthAdjust="spacing" textLength="17.1177" x="337.9717" y="342.3018">yes</text><text fill="#000000" font-family="sans-serif" font-size="11" lengthAdjust="spacing" textLength="171.8213" x="248.061" y="323.3838">Are all required placeholders filled?</text><text fill="#000000" font-family="sans-serif" font-size="11" lengthAdjust="spacing" textLength="12.2354" x="431.8823" y="316.4658">no</text><ellipse cx="333.9717" cy="493.8477" fill="none" rx="11" ry="11" style="stroke:#222222;stroke-width:1.0;"/><ellipse cx="333.9717" cy="493.8477" fill="#222222" rx="6" ry="6" style="stroke:#222222;stroke-width:1.0;"/><line style="stroke:#181818;stroke-width:1.0;" x1="333.9717" x2="333.9717" y1="30" y2="50"/><polygon fill="#181818" points="329.9717,40,333.9717,50,337.9717,40,333.9717,44" style="stroke:#181818;stroke-width:1.0;"/><line style="stroke:#181818;stroke-width:1.0;" x1="333.9717" x2="333.9717" y1="85.0938" y2="105.0938"/><polygon fill="#181818" points="329.9717,95.0938,333.9717,105.0938,337.9717,95.0938,333.9717,99.0938" style="stroke:#181818;stroke-width:1.0;"/><line style="stroke:#181818;stroke-width:1.0;" x1="333.9717" x2="333.9717" y1="140.1875" y2="160.1875"/><polygon fill="#181818" points="329.9717,150.1875,333.9717,160.1875,337.9717,150.1875,333.9717,154.1875" style="stroke:#181818;stroke-width:1.0;"/><line style="stroke:#181818;stroke-width:1.0;" x1="333.9717" x2="333.9717" y1="195.2813" y2="219.0859"/><polygon fill="#181818" points="329.9717,209.0859,333.9717,219.0859,337.9717,209.0859,333.9717,213.0859" style="stroke:#181818;stroke-width:1.0;"/><line style="stroke:#181818;stroke-width:1.0;" x1="333.9717" x2="333.9717" y1="390.8945" y2="418.8477"/><polygon fill="#181818" points="329.9717,408.8477,333.9717,418.8477,337.9717,408.8477,333.9717,412.8477" style="stroke:#181818;stroke-width:1.0;"/><line style="stroke:#181818;stroke-width:1.0;" x1="333.9717" x2="333.9717" y1="330.8828" y2="355.8008"/><polygon fill="#181818" points="329.9717,345.8008,333.9717,355.8008,337.9717,345.8008,333.9717,349.8008" style="stroke:#181818;stroke-width:1.0;"/><line style="stroke:#181818;stroke-width:1.0;" x1="431.8823" x2="443.8823" y1="318.8828" y2="318.8828"/><polygon fill="#181818" points="439.8823,388.8477,443.8823,398.8477,447.8823,388.8477,443.8823,392.8477" style="stroke:#181818;stroke-width:1.0;"/><line style="stroke:#181818;stroke-width:1.0;" x1="443.8823" x2="443.8823" y1="318.8828" y2="462.8477"/><line style="stroke:#181818;stroke-width:1.0;" x1="443.8823" x2="333.9717" y1="462.8477" y2="462.8477"/><line style="stroke:#181818;stroke-width:1.0;" x1="333.9717" x2="333.9717" y1="462.8477" y2="482.8477"/><polygon fill="#181818" points="329.9717,472.8477,333.9717,482.8477,337.9717,472.8477,333.9717,476.8477" style="stroke:#181818;stroke-width:1.0;"/><line style="stroke:#181818;stroke-width:1.0;" x1="333.9717" x2="333.9717" y1="254.1797" y2="306.8828"/><polygon fill="#181818" points="329.9717,296.8828,333.9717,306.8828,337.9717,296.8828,333.9717,300.8828" style="stroke:#181818;stroke-width:1.0;"/><!--SRC=[NOynJiGm44Lxd-8hLRQ00sGBXBGKD6W5NC299sjBZctiiK9kppXQ8K9doV-__wQmpgo6Yol9wmtTPGjwSHC-zUW9LtsZxgo63njNw9GmwepLiGKxzdHMQdYdO2Z3t7kyzmhdEd7DaWYH2TdTB2lWuSwrfALKe8D1ZclPlrv3gepPaJS5SymGeubiz2sgP0QDfVx8lj4tTnWhSmpYucRqpvcWlKUch-eocGD4uDwJUJg1BGNq6vMJJ0ylORVwnuES4PCYNmXzY2rvE0R7WamkseK2uqh36TJ0pk_1PdGGqQ8vnILvOZAFalazJnvkLgfD_m00]--></g></svg>