<svg xmlns="http://www.w3.org/2000/svg" xmlns:xlink="http://www.w3.org/1999/xlink" contentStyleType="text/css" height="609px" preserveAspectRatio="none" style="width:699px;height:609px;background:#FFFFFF;" version="1.1" viewBox="0 0 699 609" width="699px" zoomAndPan="magnify"><defs/><g><ellipse cx="208.2476" cy="20" fill="#222222" rx="10" ry="10" style="stroke:#222222;stroke-width:1.0;"/><rect fill="#F1F1F1" height="35.0938" rx="12.5" ry="12.5" style="stroke:#181818;stroke-width:0.5;" width="125.3867" x="145.5542" y="50"/><text fill="#000000" font-family="sans-serif" font-size="12" lengthAdjust="spacing" textLength="105.3867" x="155.5542" y="72.457">Display Editor Page</text><rect fill="#F1F1F1" height="35.0938" rx="12.5" ry="12.5" style="stroke:#181818;stroke-width:0.5;" width="198.7754" x="108.8599" y="105.0938"/><text fill="#000000" font-family="sans-serif" font-size="12" lengthAdjust="spacing" textLength="178.7754" x="118.8599" y="127.5508">Load DocumentEditor component</text><polygon fill="#F1F1F1" points="139.46,160.1875,277.0352,160.1875,289.0352,172.1875,277.0352,184.1875,139.46,184.1875,127.46,172.1875,139.46,160.1875" style="stroke:#181818;stroke-width:0.5;"/><text fill="#000000" font-family="sans-serif" font-size="11" lengthAdjust="spacing" textLength="137.5752" x="139.46" y="176.6885">Is document URL available?</text><text fill="#000000" font-family="sans-serif" font-size="11" lengthAdjust="spacing" textLength="17.1177" x="110.3423" y="169.7705">yes</text><text fill="#000000" font-family="sans-serif" font-size="11" lengthAdjust="spacing" textLength="12.2354" x="289.0352" y="169.7705">no</text><rect fill="#F1F1F1" height="35.0938" rx="12.5" ry="12.5" style="stroke:#181818;stroke-width:0.5;" width="148.7305" x="11" y="194.1875"/><text fill="#000000" font-family="sans-serif" font-size="12" lengthAdjust="spacing" textLength="128.7305" x="21" y="216.6445">Render DocumentEditor</text><path d="M441.1016,194.1875 L441.1016,219.7148 L421.1016,223.7148 L441.1016,227.7148 L441.1016,253.2422 A0,0 0 0 0 441.1016,253.2422 L687.5703,253.2422 A0,0 0 0 0 687.5703,253.2422 L687.5703,204.1875 L677.5703,194.1875 L441.1016,194.1875 A0,0 0 0 0 441.1016,194.1875 " fill="#FEFFDD" style="stroke:#181818;stroke-width:0.5;"/><path d="M677.5703,194.1875 L677.5703,204.1875 L687.5703,204.1875 L677.5703,194.1875 " fill="#FEFFDD" style="stroke:#181818;stroke-width:0.5;"/><text fill="#000000" font-family="sans-serif" font-size="13" lengthAdjust="spacing" textLength="212.4497" x="447.1016" y="212.6826">If the document URL is not available,</text><text fill="#000000" font-family="sans-serif" font-size="13" lengthAdjust="spacing" textLength="225.4688" x="447.1016" y="229.0342">display a loading message until it loads</text><text fill="#000000" font-family="sans-serif" font-size="13" lengthAdjust="spacing" textLength="145.2153" x="447.1016" y="245.3857">or show an error if it fails.</text><rect fill="#F1F1F1" height="35.0938" rx="12.5" ry="12.5" style="stroke:#181818;stroke-width:0.5;" width="179.9434" x="241.1582" y="206.168"/><text fill="#000000" font-family="sans-serif" font-size="12" lengthAdjust="spacing" textLength="159.9434" x="251.1582" y="228.625">Display "Loading document..."</text><rect fill="#F1F1F1" height="35.0938" rx="12.5" ry="12.5" style="stroke:#181818;stroke-width:0.5;" width="279.9746" x="191.1426" y="322.1602"/><text fill="#000000" font-family="sans-serif" font-size="12" lengthAdjust="spacing" textLength="259.9746" x="201.1426" y="344.6172">Display error message "Failed to load document"</text><rect fill="#F1F1F1" height="35.0938" rx="12.5" ry="12.5" style="stroke:#181818;stroke-width:0.5;" width="282.7988" x="189.7305" y="392.2539"/><text fill="#000000" font-family="sans-serif" font-size="12" lengthAdjust="spacing" textLength="262.7988" x="199.7305" y="414.7109">Offer retry option or go back to template selection</text><polygon fill="#F1F1F1" points="287.4065,273.2422,374.8533,273.2422,386.8533,285.2422,374.8533,297.2422,287.4065,297.2422,275.4065,285.2422,287.4065,273.2422" style="stroke:#181818;stroke-width:0.5;"/><text fill="#000000" font-family="sans-serif" font-size="11" lengthAdjust="spacing" textLength="17.1177" x="335.1299" y="308.6611">yes</text><text fill="#000000" font-family="sans-serif" font-size="11" lengthAdjust="spacing" textLength="87.4468" x="287.4065" y="289.7432">Does loading fail?</text><polygon fill="#F1F1F1" points="331.1299,447.3477,343.1299,459.3477,331.1299,471.3477,319.1299,459.3477,331.1299,447.3477" style="stroke:#181818;stroke-width:0.5;"/><polygon fill="#F1F1F1" points="208.2476,477.3477,220.2476,489.3477,208.2476,501.3477,196.2476,489.3477,208.2476,477.3477" style="stroke:#181818;stroke-width:0.5;"/><rect fill="#F1F1F1" height="35.0938" rx="12.5" ry="12.5" style="stroke:#181818;stroke-width:0.5;" width="273.3125" x="71.5913" y="521.3477"/><text fill="#000000" font-family="sans-serif" font-size="12" lengthAdjust="spacing" textLength="253.3125" x="81.5913" y="543.8047">Display "Go Back to Selecting Template" button</text><ellipse cx="208.2476" cy="587.4414" fill="none" rx="11" ry="11" style="stroke:#222222;stroke-width:1.0;"/><ellipse cx="208.2476" cy="587.4414" fill="#222222" rx="6" ry="6" style="stroke:#222222;stroke-width:1.0;"/><line style="stroke:#181818;stroke-width:1.0;" x1="208.2476" x2="208.2476" y1="30" y2="50"/><polygon fill="#181818" points="204.2476,40,208.2476,50,212.2476,40,208.2476,44" style="stroke:#181818;stroke-width:1.0;"/><line style="stroke:#181818;stroke-width:1.0;" x1="208.2476" x2="208.2476" y1="85.0938" y2="105.0938"/><polygon fill="#181818" points="204.2476,95.0938,208.2476,105.0938,212.2476,95.0938,208.2476,99.0938" style="stroke:#181818;stroke-width:1.0;"/><line style="stroke:#181818;stroke-width:1.0;" x1="331.1299" x2="331.1299" y1="357.2539" y2="392.2539"/><polygon fill="#181818" points="327.1299,382.2539,331.1299,392.2539,335.1299,382.2539,331.1299,386.2539" style="stroke:#181818;stroke-width:1.0;"/><line style="stroke:#181818;stroke-width:1.0;" x1="331.1299" x2="331.1299" y1="297.2422" y2="322.1602"/><polygon fill="#181818" points="327.1299,312.1602,331.1299,322.1602,335.1299,312.1602,331.1299,316.1602" style="stroke:#181818;stroke-width:1.0;"/><line style="stroke:#181818;stroke-width:1.0;" x1="386.8533" x2="482.5293" y1="285.2422" y2="285.2422"/><polygon fill="#181818" points="478.5293,364.7539,482.5293,374.7539,486.5293,364.7539,482.5293,368.7539" style="stroke:#181818;stroke-width:1.0;"/><line style="stroke:#181818;stroke-width:1.0;" x1="482.5293" x2="482.5293" y1="285.2422" y2="459.3477"/><line style="stroke:#181818;stroke-width:1.0;" x1="482.5293" x2="343.1299" y1="459.3477" y2="459.3477"/><polygon fill="#181818" points="353.1299,455.3477,343.1299,459.3477,353.1299,463.3477,349.1299,459.3477" style="stroke:#181818;stroke-width:1.0;"/><line style="stroke:#181818;stroke-width:1.0;" x1="331.1299" x2="331.1299" y1="427.3477" y2="447.3477"/><polygon fill="#181818" points="327.1299,437.3477,331.1299,447.3477,335.1299,437.3477,331.1299,441.3477" style="stroke:#181818;stroke-width:1.0;"/><line style="stroke:#181818;stroke-width:1.0;" x1="331.1299" x2="331.1299" y1="241.2617" y2="273.2422"/><polygon fill="#181818" points="327.1299,263.2422,331.1299,273.2422,335.1299,263.2422,331.1299,267.2422" style="stroke:#181818;stroke-width:1.0;"/><line style="stroke:#181818;stroke-width:1.0;" x1="127.46" x2="85.3652" y1="172.1875" y2="172.1875"/><line style="stroke:#181818;stroke-width:1.0;" x1="85.3652" x2="85.3652" y1="172.1875" y2="194.1875"/><polygon fill="#181818" points="81.3652,184.1875,85.3652,194.1875,89.3652,184.1875,85.3652,188.1875" style="stroke:#181818;stroke-width:1.0;"/><line style="stroke:#181818;stroke-width:1.0;" x1="289.0352" x2="331.1299" y1="172.1875" y2="172.1875"/><line style="stroke:#181818;stroke-width:1.0;" x1="331.1299" x2="331.1299" y1="172.1875" y2="206.168"/><polygon fill="#181818" points="327.1299,196.168,331.1299,206.168,335.1299,196.168,331.1299,200.168" style="stroke:#181818;stroke-width:1.0;"/><line style="stroke:#181818;stroke-width:1.0;" x1="85.3652" x2="85.3652" y1="229.2813" y2="489.3477"/><line style="stroke:#181818;stroke-width:1.0;" x1="85.3652" x2="196.2476" y1="489.3477" y2="489.3477"/><polygon fill="#181818" points="186.2476,485.3477,196.2476,489.3477,186.2476,493.3477,190.2476,489.3477" style="stroke:#181818;stroke-width:1.0;"/><line style="stroke:#181818;stroke-width:1.0;" x1="331.1299" x2="331.1299" y1="471.3477" y2="489.3477"/><line style="stroke:#181818;stroke-width:1.0;" x1="331.1299" x2="220.2476" y1="489.3477" y2="489.3477"/><polygon fill="#181818" points="230.2476,485.3477,220.2476,489.3477,230.2476,493.3477,226.2476,489.3477" style="stroke:#181818;stroke-width:1.0;"/><line style="stroke:#181818;stroke-width:1.0;" x1="208.2476" x2="208.2476" y1="140.1875" y2="160.1875"/><polygon fill="#181818" points="204.2476,150.1875,208.2476,160.1875,212.2476,150.1875,208.2476,154.1875" style="stroke:#181818;stroke-width:1.0;"/><line style="stroke:#181818;stroke-width:1.0;" x1="208.2476" x2="208.2476" y1="501.3477" y2="521.3477"/><polygon fill="#181818" points="204.2476,511.3477,208.2476,521.3477,212.2476,511.3477,208.2476,515.3477" style="stroke:#181818;stroke-width:1.0;"/><line style="stroke:#181818;stroke-width:1.0;" x1="208.2476" x2="208.2476" y1="556.4414" y2="576.4414"/><polygon fill="#181818" points="204.2476,566.4414,208.2476,576.4414,212.2476,566.4414,208.2476,570.4414" style="stroke:#181818;stroke-width:1.0;"/><!--SRC=[NP7HQiCm34NV_HKYJosCV43pC1ZTHg6mqMqVu2HAQkfOmL8tylUJdRJT-c8iV7HrhynYevZDrl7exGJFhHEAy6vxhCncJxQ5BJNd0OCiJmqD8mMjAsDS1wiTGxiGy7NOW_sspjlQu-CQv8W1LXFosW1i3XXQZ7TwbK7F2Aj0cRduAD9e5_ghTbcMHQL48468hZ-A5W2xBWtvxy1necv67ZBPBieM_28z8BFcX7CGvy59Vk0CQqu-qW_O01YZLffKWKuLkLH2asGdUaqxs1BoLJP1zzd_99lrBhEB5wMn1Q7SVmsIishNMzVfoY9Ad816SHIIjvwWjiqfTGaEAgixOVJO9A2Q_RdEpEVjSujNWgUbxsF6rU_deb10VHP9_Imq_W80]--></g></svg>