<svg xmlns="http://www.w3.org/2000/svg" xmlns:xlink="http://www.w3.org/1999/xlink" contentStyleType="text/css" height="638px" preserveAspectRatio="none" style="width:1468px;height:638px;background:#FFFFFF;" version="1.1" viewBox="0 0 1468 638" width="1468px" zoomAndPan="magnify"><defs/><g><ellipse cx="746.6118" cy="20" fill="#222222" rx="10" ry="10" style="stroke:#222222;stroke-width:1.0;"/><rect fill="#F1F1F1" height="35.0938" rx="12.5" ry="12.5" style="stroke:#181818;stroke-width:0.5;" width="160.0625" x="666.5806" y="50"/><text fill="#000000" font-family="sans-serif" font-size="12" lengthAdjust="spacing" textLength="140.0625" x="676.5806" y="72.457">Display File Explorer page</text><rect fill="#F1F1F1" height="35.0938" rx="12.5" ry="12.5" style="stroke:#181818;stroke-width:0.5;" width="198.7813" x="647.2212" y="105.0938"/><text fill="#000000" font-family="sans-serif" font-size="12" lengthAdjust="spacing" textLength="178.7813" x="657.2212" y="127.5508">Render folder tree in the left pane</text><rect fill="#F1F1F1" height="35.0938" rx="12.5" ry="12.5" style="stroke:#181818;stroke-width:0.5;" width="185.4277" x="653.8979" y="160.1875"/><text fill="#000000" font-family="sans-serif" font-size="12" lengthAdjust="spacing" textLength="165.4277" x="663.8979" y="182.6445">Render file list in the right pane</text><rect fill="#F1F1F1" height="35.0938" rx="12.5" ry="12.5" style="stroke:#181818;stroke-width:0.5;" width="217.959" x="637.6323" y="215.2813"/><text fill="#000000" font-family="sans-serif" font-size="12" lengthAdjust="spacing" textLength="197.959" x="647.6323" y="237.7383">Show "Upload to std_ Folder" section</text><path d="M841.4609,260.375 L841.4609,303.0781 L1157.2969,303.0781 L1157.2969,270.375 L1147.2969,260.375 L841.4609,260.375 " fill="#FEFFDD" style="stroke:#181818;stroke-width:0.5;"/><path d="M1147.2969,260.375 L1147.2969,270.375 L1157.2969,270.375 L1147.2969,260.375 " fill="#FEFFDD" style="stroke:#181818;stroke-width:0.5;"/><text fill="#000000" font-family="sans-serif" font-size="13" lengthAdjust="spacing" textLength="243.4897" x="847.4609" y="278.8701">User can select a folder, interact with files,</text><text fill="#000000" font-family="sans-serif" font-size="13" lengthAdjust="spacing" textLength="294.8359" x="847.4609" y="295.2217">or perform actions like upload, download, or delete.</text><polygon fill="#F1F1F1" points="663.7627,303.0781,829.4609,303.0781,841.4609,315.0781,829.4609,327.0781,663.7627,327.0781,651.7627,315.0781,663.7627,303.0781" style="stroke:#181818;stroke-width:0.5;"/><text fill="#000000" font-family="sans-serif" font-size="11" lengthAdjust="spacing" textLength="165.6982" x="663.7627" y="319.5791">Is folder tree loaded successfully?</text><text fill="#000000" font-family="sans-serif" font-size="11" lengthAdjust="spacing" textLength="17.1177" x="634.645" y="312.6611">yes</text><text fill="#000000" font-family="sans-serif" font-size="11" lengthAdjust="spacing" textLength="12.2354" x="841.4609" y="312.6611">no</text><polygon fill="#F1F1F1" points="417.2087,337.0781,515.6555,337.0781,527.6555,349.0781,515.6555,361.0781,417.2087,361.0781,405.2087,349.0781,417.2087,337.0781" style="stroke:#181818;stroke-width:0.5;"/><text fill="#000000" font-family="sans-serif" font-size="11" lengthAdjust="spacing" textLength="98.4468" x="417.2087" y="353.5791">Is a folder selected?</text><text fill="#000000" font-family="sans-serif" font-size="11" lengthAdjust="spacing" textLength="17.1177" x="388.0911" y="346.6611">yes</text><text fill="#000000" font-family="sans-serif" font-size="11" lengthAdjust="spacing" textLength="12.2354" x="527.6555" y="346.6611">no</text><rect fill="#F1F1F1" height="35.0938" rx="12.5" ry="12.5" style="stroke:#181818;stroke-width:0.5;" width="228.125" x="43.6196" y="371.0781"/><text fill="#000000" font-family="sans-serif" font-size="12" lengthAdjust="spacing" textLength="208.125" x="53.6196" y="393.5352">Fetch and display files in the right pane</text><polygon fill="#F1F1F1" points="113.6633,426.1719,201.7009,426.1719,213.7009,438.1719,201.7009,450.1719,113.6633,450.1719,101.6633,438.1719,113.6633,426.1719" style="stroke:#181818;stroke-width:0.5;"/><text fill="#000000" font-family="sans-serif" font-size="11" lengthAdjust="spacing" textLength="88.0376" x="113.6633" y="442.6729">Fetch successful?</text><text fill="#000000" font-family="sans-serif" font-size="11" lengthAdjust="spacing" textLength="17.1177" x="84.5457" y="435.7549">yes</text><text fill="#000000" font-family="sans-serif" font-size="11" lengthAdjust="spacing" textLength="12.2354" x="213.7009" y="435.7549">no</text><rect fill="#F1F1F1" height="35.0938" rx="12.5" ry="12.5" style="stroke:#181818;stroke-width:0.5;" width="99.3711" x="11" y="460.1719"/><text fill="#000000" font-family="sans-serif" font-size="12" lengthAdjust="spacing" textLength="79.3711" x="21" y="482.6289">Files displayed</text><path d="M398.9863,464.543 L398.9863,473.7188 L378.9863,477.7188 L398.9863,481.7188 L398.9863,490.8945 A0,0 0 0 0 398.9863,490.8945 L664.2251,490.8945 A0,0 0 0 0 664.2251,490.8945 L664.2251,474.543 L654.2251,464.543 L398.9863,464.543 A0,0 0 0 0 398.9863,464.543 " fill="#FEFFDD" style="stroke:#181818;stroke-width:0.5;"/><path d="M654.2251,464.543 L654.2251,474.543 L664.2251,474.543 L654.2251,464.543 " fill="#FEFFDD" style="stroke:#181818;stroke-width:0.5;"/><text fill="#000000" font-family="sans-serif" font-size="13" lengthAdjust="spacing" textLength="244.2388" x="404.9863" y="483.0381">User can retry loading or refresh the page.</text><rect fill="#F1F1F1" height="35.0938" rx="12.5" ry="12.5" style="stroke:#181818;stroke-width:0.5;" width="248.6152" x="130.3711" y="460.1719"/><text fill="#000000" font-family="sans-serif" font-size="12" lengthAdjust="spacing" textLength="228.6152" x="140.3711" y="482.6289">Display error message "Failed to load files"</text><polygon fill="#F1F1F1" points="157.6821,501.2656,169.6821,513.2656,157.6821,525.2656,145.6821,513.2656,157.6821,501.2656" style="stroke:#181818;stroke-width:0.5;"/><rect fill="#F1F1F1" height="35.0938" rx="12.5" ry="12.5" style="stroke:#181818;stroke-width:0.5;" width="161.9141" x="694.2251" y="371.0781"/><text fill="#000000" font-family="sans-serif" font-size="12" lengthAdjust="spacing" textLength="141.9141" x="704.2251" y="393.5352">Display "No files available"</text><polygon fill="#F1F1F1" points="466.4321,531.2656,478.4321,543.2656,466.4321,555.2656,454.4321,543.2656,466.4321,531.2656" style="stroke:#181818;stroke-width:0.5;"/><path d="M1187.4438,341.4492 L1187.4438,350.625 L1167.4438,354.625 L1187.4438,358.625 L1187.4438,367.8008 A0,0 0 0 0 1187.4438,367.8008 L1456.2881,367.8008 A0,0 0 0 0 1456.2881,367.8008 L1456.2881,351.4492 L1446.2881,341.4492 L1187.4438,341.4492 A0,0 0 0 0 1187.4438,341.4492 " fill="#FEFFDD" style="stroke:#181818;stroke-width:0.5;"/><path d="M1446.2881,341.4492 L1446.2881,351.4492 L1456.2881,351.4492 L1446.2881,341.4492 " fill="#FEFFDD" style="stroke:#181818;stroke-width:0.5;"/><text fill="#000000" font-family="sans-serif" font-size="13" lengthAdjust="spacing" textLength="247.8442" x="1193.4438" y="359.9443">Prompt user to retry loading the folder tree.</text><rect fill="#F1F1F1" height="35.0938" rx="12.5" ry="12.5" style="stroke:#181818;stroke-width:0.5;" width="281.3047" x="886.1392" y="337.0781"/><text fill="#000000" font-family="sans-serif" font-size="12" lengthAdjust="spacing" textLength="261.3047" x="896.1392" y="359.5352">Display error message "Failed to load folder tree"</text><polygon fill="#F1F1F1" points="746.6118,561.2656,758.6118,573.2656,746.6118,585.2656,734.6118,573.2656,746.6118,561.2656" style="stroke:#181818;stroke-width:0.5;"/><ellipse cx="746.6118" cy="616.2656" fill="none" rx="11" ry="11" style="stroke:#222222;stroke-width:1.0;"/><ellipse cx="746.6118" cy="616.2656" fill="#222222" rx="6" ry="6" style="stroke:#222222;stroke-width:1.0;"/><line style="stroke:#181818;stroke-width:1.0;" x1="746.6118" x2="746.6118" y1="30" y2="50"/><polygon fill="#181818" points="742.6118,40,746.6118,50,750.6118,40,746.6118,44" style="stroke:#181818;stroke-width:1.0;"/><line style="stroke:#181818;stroke-width:1.0;" x1="746.6118" x2="746.6118" y1="85.0938" y2="105.0938"/><polygon fill="#181818" points="742.6118,95.0938,746.6118,105.0938,750.6118,95.0938,746.6118,99.0938" style="stroke:#181818;stroke-width:1.0;"/><line style="stroke:#181818;stroke-width:1.0;" x1="746.6118" x2="746.6118" y1="140.1875" y2="160.1875"/><polygon fill="#181818" points="742.6118,150.1875,746.6118,160.1875,750.6118,150.1875,746.6118,154.1875" style="stroke:#181818;stroke-width:1.0;"/><line style="stroke:#181818;stroke-width:1.0;" x1="746.6118" x2="746.6118" y1="195.2813" y2="215.2813"/><polygon fill="#181818" points="742.6118,205.2813,746.6118,215.2813,750.6118,205.2813,746.6118,209.2813" style="stroke:#181818;stroke-width:1.0;"/><line style="stroke:#181818;stroke-width:1.0;" x1="101.6633" x2="60.6855" y1="438.1719" y2="438.1719"/><line style="stroke:#181818;stroke-width:1.0;" x1="60.6855" x2="60.6855" y1="438.1719" y2="460.1719"/><polygon fill="#181818" points="56.6855,450.1719,60.6855,460.1719,64.6855,450.1719,60.6855,454.1719" style="stroke:#181818;stroke-width:1.0;"/><line style="stroke:#181818;stroke-width:1.0;" x1="213.7009" x2="254.6787" y1="438.1719" y2="438.1719"/><line style="stroke:#181818;stroke-width:1.0;" x1="254.6787" x2="254.6787" y1="438.1719" y2="460.1719"/><polygon fill="#181818" points="250.6787,450.1719,254.6787,460.1719,258.6787,450.1719,254.6787,454.1719" style="stroke:#181818;stroke-width:1.0;"/><line style="stroke:#181818;stroke-width:1.0;" x1="60.6855" x2="60.6855" y1="495.2656" y2="513.2656"/><line style="stroke:#181818;stroke-width:1.0;" x1="60.6855" x2="145.6821" y1="513.2656" y2="513.2656"/><polygon fill="#181818" points="135.6821,509.2656,145.6821,513.2656,135.6821,517.2656,139.6821,513.2656" style="stroke:#181818;stroke-width:1.0;"/><line style="stroke:#181818;stroke-width:1.0;" x1="254.6787" x2="254.6787" y1="495.2656" y2="513.2656"/><line style="stroke:#181818;stroke-width:1.0;" x1="254.6787" x2="169.6821" y1="513.2656" y2="513.2656"/><polygon fill="#181818" points="179.6821,509.2656,169.6821,513.2656,179.6821,517.2656,175.6821,513.2656" style="stroke:#181818;stroke-width:1.0;"/><line style="stroke:#181818;stroke-width:1.0;" x1="157.6821" x2="157.6821" y1="406.1719" y2="426.1719"/><polygon fill="#181818" points="153.6821,416.1719,157.6821,426.1719,161.6821,416.1719,157.6821,420.1719" style="stroke:#181818;stroke-width:1.0;"/><line style="stroke:#181818;stroke-width:1.0;" x1="405.2087" x2="157.6821" y1="349.0781" y2="349.0781"/><line style="stroke:#181818;stroke-width:1.0;" x1="157.6821" x2="157.6821" y1="349.0781" y2="371.0781"/><polygon fill="#181818" points="153.6821,361.0781,157.6821,371.0781,161.6821,361.0781,157.6821,365.0781" style="stroke:#181818;stroke-width:1.0;"/><line style="stroke:#181818;stroke-width:1.0;" x1="527.6555" x2="775.1821" y1="349.0781" y2="349.0781"/><line style="stroke:#181818;stroke-width:1.0;" x1="775.1821" x2="775.1821" y1="349.0781" y2="371.0781"/><polygon fill="#181818" points="771.1821,361.0781,775.1821,371.0781,779.1821,361.0781,775.1821,365.0781" style="stroke:#181818;stroke-width:1.0;"/><line style="stroke:#181818;stroke-width:1.0;" x1="157.6821" x2="157.6821" y1="525.2656" y2="543.2656"/><line style="stroke:#181818;stroke-width:1.0;" x1="157.6821" x2="454.4321" y1="543.2656" y2="543.2656"/><polygon fill="#181818" points="444.4321,539.2656,454.4321,543.2656,444.4321,547.2656,448.4321,543.2656" style="stroke:#181818;stroke-width:1.0;"/><line style="stroke:#181818;stroke-width:1.0;" x1="775.1821" x2="775.1821" y1="406.1719" y2="543.2656"/><line style="stroke:#181818;stroke-width:1.0;" x1="775.1821" x2="478.4321" y1="543.2656" y2="543.2656"/><polygon fill="#181818" points="488.4321,539.2656,478.4321,543.2656,488.4321,547.2656,484.4321,543.2656" style="stroke:#181818;stroke-width:1.0;"/><line style="stroke:#181818;stroke-width:1.0;" x1="651.7627" x2="466.4321" y1="315.0781" y2="315.0781"/><line style="stroke:#181818;stroke-width:1.0;" x1="466.4321" x2="466.4321" y1="315.0781" y2="337.0781"/><polygon fill="#181818" points="462.4321,327.0781,466.4321,337.0781,470.4321,327.0781,466.4321,331.0781" style="stroke:#181818;stroke-width:1.0;"/><line style="stroke:#181818;stroke-width:1.0;" x1="841.4609" x2="1026.7915" y1="315.0781" y2="315.0781"/><line style="stroke:#181818;stroke-width:1.0;" x1="1026.7915" x2="1026.7915" y1="315.0781" y2="337.0781"/><polygon fill="#181818" points="1022.7915,327.0781,1026.7915,337.0781,1030.7915,327.0781,1026.7915,331.0781" style="stroke:#181818;stroke-width:1.0;"/><line style="stroke:#181818;stroke-width:1.0;" x1="466.4321" x2="466.4321" y1="555.2656" y2="573.2656"/><line style="stroke:#181818;stroke-width:1.0;" x1="466.4321" x2="734.6118" y1="573.2656" y2="573.2656"/><polygon fill="#181818" points="724.6118,569.2656,734.6118,573.2656,724.6118,577.2656,728.6118,573.2656" style="stroke:#181818;stroke-width:1.0;"/><line style="stroke:#181818;stroke-width:1.0;" x1="1026.7915" x2="1026.7915" y1="372.1719" y2="573.2656"/><line style="stroke:#181818;stroke-width:1.0;" x1="1026.7915" x2="758.6118" y1="573.2656" y2="573.2656"/><polygon fill="#181818" points="768.6118,569.2656,758.6118,573.2656,768.6118,577.2656,764.6118,573.2656" style="stroke:#181818;stroke-width:1.0;"/><line style="stroke:#181818;stroke-width:1.0;" x1="746.6118" x2="746.6118" y1="250.375" y2="303.0781"/><polygon fill="#181818" points="742.6118,293.0781,746.6118,303.0781,750.6118,293.0781,746.6118,297.0781" style="stroke:#181818;stroke-width:1.0;"/><line style="stroke:#181818;stroke-width:1.0;" x1="746.6118" x2="746.6118" y1="585.2656" y2="605.2656"/><polygon fill="#181818" points="742.6118,595.2656,746.6118,605.2656,750.6118,595.2656,746.6118,599.2656" style="stroke:#181818;stroke-width:1.0;"/><!--SRC=[ZPB1JiCm38RlUGghfqsQU83jm0KgSK48j3CAZRj6P4aLkuo-FKwQTTtWmAbDvF_B_zicrf7Lzi5Ix_G8jNK8Zz-z2n4ZzFg0ExLzHM_ar0QNFXmHmNhW3i5XorBbbrM9u2pnkIRQGpSNlNNX1DLU-De01o0sxr1dS0M43TlWTqhP5bPFTFLYKg016fe6YTh1kV5-dHxmi1gHrWgWgFHPH-Y4YEQs3c1R8pSTQ6_0bEJ9D_tbETKdyYIvlF-RchYPKfXe9ZKwGbZvC5UTkuqnXWX7uKcZeQgrg7DRSdkoesfNH3vmyLKk0FOa8Hlj8IB7COkiFu0W8xOHgSjPqX3lYaP6b46g76ohRktDvghdK9gYlyIO_d2OpKoofUY_UIxJpA2RH2yn77k68OKIoNMc56IXlrEBB9CXTOMRMpFjmBmJ6vamOzHoTRBSJG4t8X3VFSOsn2Fel8KaI_o9CEHLtO099p_zIQKHA8k9sO8Y3lqF]--></g></svg>