<svg xmlns="http://www.w3.org/2000/svg" xmlns:xlink="http://www.w3.org/1999/xlink" contentStyleType="text/css" height="732px" preserveAspectRatio="none" style="width:658px;height:732px;background:#FFFFFF;" version="1.1" viewBox="0 0 658 732" width="658px" zoomAndPan="magnify"><defs/><g><ellipse cx="285.1279" cy="20" fill="#222222" rx="10" ry="10" style="stroke:#222222;stroke-width:1.0;"/><rect fill="#F1F1F1" height="35.0938" rx="12.5" ry="12.5" style="stroke:#181818;stroke-width:0.5;" width="224.082" x="173.0869" y="50"/><text fill="#000000" font-family="sans-serif" font-size="12" lengthAdjust="spacing" textLength="204.082" x="183.0869" y="72.457">User views the Registered Users table</text><rect fill="#F1F1F1" height="35.0938" rx="12.5" ry="12.5" style="stroke:#181818;stroke-width:0.5;" width="200.5977" x="184.8291" y="105.0938"/><text fill="#000000" font-family="sans-serif" font-size="12" lengthAdjust="spacing" textLength="180.5977" x="194.8291" y="127.5508">User clicks "Edit" to update a user</text><polygon fill="#F1F1F1" points="224.064,160.1875,346.1919,160.1875,358.1919,172.1875,346.1919,184.1875,224.064,184.1875,212.064,172.1875,224.064,160.1875" style="stroke:#181818;stroke-width:0.5;"/><text fill="#000000" font-family="sans-serif" font-size="11" lengthAdjust="spacing" textLength="122.1279" x="224.064" y="176.6885">Is "Edit User" confirmed?</text><text fill="#000000" font-family="sans-serif" font-size="11" lengthAdjust="spacing" textLength="17.1177" x="194.9463" y="169.7705">yes</text><text fill="#000000" font-family="sans-serif" font-size="11" lengthAdjust="spacing" textLength="12.2354" x="358.1919" y="169.7705">no</text><rect fill="#F1F1F1" height="35.0938" rx="12.5" ry="12.5" style="stroke:#181818;stroke-width:0.5;" width="238.5957" x="26.3545" y="194.1875"/><text fill="#000000" font-family="sans-serif" font-size="12" lengthAdjust="spacing" textLength="218.5957" x="36.3545" y="216.6445">User clicks "Save" in the Edit User modal</text><rect fill="#F1F1F1" height="35.0938" rx="12.5" ry="12.5" style="stroke:#181818;stroke-width:0.5;" width="269.3047" x="11" y="249.2813"/><text fill="#000000" font-family="sans-serif" font-size="12" lengthAdjust="spacing" textLength="249.3047" x="21" y="271.7383">Snackbar displays "User updated successfully"</text><ellipse cx="145.6523" cy="315.375" fill="none" rx="11" ry="11" style="stroke:#222222;stroke-width:1.0;"/><ellipse cx="145.6523" cy="315.375" fill="#222222" rx="6" ry="6" style="stroke:#222222;stroke-width:1.0;"/><rect fill="#F1F1F1" height="35.0938" rx="12.5" ry="12.5" style="stroke:#181818;stroke-width:0.5;" width="248.5977" x="300.3047" y="194.1875"/><text fill="#000000" font-family="sans-serif" font-size="12" lengthAdjust="spacing" textLength="228.5977" x="310.3047" y="216.6445">User clicks "Cancel" in the Edit User modal</text><rect fill="#F1F1F1" height="35.0938" rx="12.5" ry="12.5" style="stroke:#181818;stroke-width:0.5;" width="194.75" x="327.2285" y="249.2813"/><text fill="#000000" font-family="sans-serif" font-size="12" lengthAdjust="spacing" textLength="174.75" x="337.2285" y="271.7383">Return to Registered Users table</text><rect fill="#F1F1F1" height="35.0938" rx="12.5" ry="12.5" style="stroke:#181818;stroke-width:0.5;" width="217.918" x="176.1689" y="346.375"/><text fill="#000000" font-family="sans-serif" font-size="12" lengthAdjust="spacing" textLength="197.918" x="186.1689" y="368.832">User clicks "Delete" to remove a user</text><polygon fill="#F1F1F1" points="231.3203,401.4688,338.9355,401.4688,350.9355,413.4688,338.9355,425.4688,231.3203,425.4688,219.3203,413.4688,231.3203,401.4688" style="stroke:#181818;stroke-width:0.5;"/><text fill="#000000" font-family="sans-serif" font-size="11" lengthAdjust="spacing" textLength="107.6152" x="231.3203" y="417.9697">Is deletion confirmed?</text><text fill="#000000" font-family="sans-serif" font-size="11" lengthAdjust="spacing" textLength="17.1177" x="202.2026" y="411.0518">yes</text><text fill="#000000" font-family="sans-serif" font-size="11" lengthAdjust="spacing" textLength="12.2354" x="350.9355" y="411.0518">no</text><rect fill="#F1F1F1" height="35.0938" rx="12.5" ry="12.5" style="stroke:#181818;stroke-width:0.5;" width="101.3809" x="103.458" y="435.4688"/><text fill="#000000" font-family="sans-serif" font-size="12" lengthAdjust="spacing" textLength="81.3809" x="113.458" y="457.9258">Delete the user</text><rect fill="#F1F1F1" height="35.0938" rx="12.5" ry="12.5" style="stroke:#181818;stroke-width:0.5;" width="265.2969" x="21.5" y="490.5625"/><text fill="#000000" font-family="sans-serif" font-size="12" lengthAdjust="spacing" textLength="245.2969" x="31.5" y="513.0195">Snackbar displays "User deleted successfully"</text><rect fill="#F1F1F1" height="35.0938" rx="12.5" ry="12.5" style="stroke:#181818;stroke-width:0.5;" width="218.6211" x="306.7969" y="435.4688"/><text fill="#000000" font-family="sans-serif" font-size="12" lengthAdjust="spacing" textLength="198.6211" x="316.7969" y="457.9258">Display "Deletion canceled" message</text><polygon fill="#F1F1F1" points="285.1279,531.6563,297.1279,543.6563,285.1279,555.6563,273.1279,543.6563,285.1279,531.6563" style="stroke:#181818;stroke-width:0.5;"/><rect fill="#F1F1F1" height="35.0938" rx="12.5" ry="12.5" style="stroke:#181818;stroke-width:0.5;" width="299.5156" x="135.3701" y="575.6563"/><text fill="#000000" font-family="sans-serif" font-size="12" lengthAdjust="spacing" textLength="279.5156" x="145.3701" y="598.1133">User views the pagination to navigate through pages</text><path d="M404.5127,620.75 L404.5127,646.2773 L384.5127,650.2773 L404.5127,654.2773 L404.5127,679.8047 A0,0 0 0 0 404.5127,679.8047 L646.6396,679.8047 A0,0 0 0 0 646.6396,679.8047 L646.6396,630.75 L636.6396,620.75 L404.5127,620.75 A0,0 0 0 0 404.5127,620.75 " fill="#FEFFDD" style="stroke:#181818;stroke-width:0.5;"/><path d="M636.6396,620.75 L636.6396,630.75 L646.6396,630.75 L636.6396,620.75 " fill="#FEFFDD" style="stroke:#181818;stroke-width:0.5;"/><text fill="#000000" font-family="sans-serif" font-size="13" lengthAdjust="spacing" textLength="221.127" x="410.5127" y="639.2451">Status updates include messages like:</text><text fill="#000000" font-family="sans-serif" font-size="13" lengthAdjust="spacing" textLength="168.9111" x="410.5127" y="655.5967">- "User updated successfully"</text><text fill="#000000" font-family="sans-serif" font-size="13" lengthAdjust="spacing" textLength="128.4575" x="410.5127" y="671.9482">- "User deletion failed"</text><rect fill="#F1F1F1" height="35.0938" rx="12.5" ry="12.5" style="stroke:#181818;stroke-width:0.5;" width="198.7695" x="185.7432" y="632.7305"/><text fill="#000000" font-family="sans-serif" font-size="12" lengthAdjust="spacing" textLength="178.7695" x="195.7432" y="655.1875">Snackbar displays status updates</text><ellipse cx="285.1279" cy="710.8047" fill="none" rx="11" ry="11" style="stroke:#222222;stroke-width:1.0;"/><ellipse cx="285.1279" cy="710.8047" fill="#222222" rx="6" ry="6" style="stroke:#222222;stroke-width:1.0;"/><line style="stroke:#181818;stroke-width:1.0;" x1="285.1279" x2="285.1279" y1="30" y2="50"/><polygon fill="#181818" points="281.1279,40,285.1279,50,289.1279,40,285.1279,44" style="stroke:#181818;stroke-width:1.0;"/><line style="stroke:#181818;stroke-width:1.0;" x1="285.1279" x2="285.1279" y1="85.0938" y2="105.0938"/><polygon fill="#181818" points="281.1279,95.0938,285.1279,105.0938,289.1279,95.0938,285.1279,99.0938" style="stroke:#181818;stroke-width:1.0;"/><line style="stroke:#181818;stroke-width:1.0;" x1="145.6523" x2="145.6523" y1="229.2813" y2="249.2813"/><polygon fill="#181818" points="141.6523,239.2813,145.6523,249.2813,149.6523,239.2813,145.6523,243.2813" style="stroke:#181818;stroke-width:1.0;"/><line style="stroke:#181818;stroke-width:1.0;" x1="145.6523" x2="145.6523" y1="284.375" y2="304.375"/><polygon fill="#181818" points="141.6523,294.375,145.6523,304.375,149.6523,294.375,145.6523,298.375" style="stroke:#181818;stroke-width:1.0;"/><line style="stroke:#181818;stroke-width:1.0;" x1="424.6035" x2="424.6035" y1="229.2813" y2="249.2813"/><polygon fill="#181818" points="420.6035,239.2813,424.6035,249.2813,428.6035,239.2813,424.6035,243.2813" style="stroke:#181818;stroke-width:1.0;"/><line style="stroke:#181818;stroke-width:1.0;" x1="212.064" x2="145.6523" y1="172.1875" y2="172.1875"/><line style="stroke:#181818;stroke-width:1.0;" x1="145.6523" x2="145.6523" y1="172.1875" y2="194.1875"/><polygon fill="#181818" points="141.6523,184.1875,145.6523,194.1875,149.6523,184.1875,145.6523,188.1875" style="stroke:#181818;stroke-width:1.0;"/><line style="stroke:#181818;stroke-width:1.0;" x1="358.1919" x2="424.6035" y1="172.1875" y2="172.1875"/><line style="stroke:#181818;stroke-width:1.0;" x1="424.6035" x2="424.6035" y1="172.1875" y2="194.1875"/><polygon fill="#181818" points="420.6035,184.1875,424.6035,194.1875,428.6035,184.1875,424.6035,188.1875" style="stroke:#181818;stroke-width:1.0;"/><line style="stroke:#181818;stroke-width:1.0;" x1="424.6035" x2="424.6035" y1="284.375" y2="331.375"/><line style="stroke:#181818;stroke-width:1.0;" x1="424.6035" x2="285.1279" y1="331.375" y2="331.375"/><line style="stroke:#181818;stroke-width:1.0;" x1="285.1279" x2="285.1279" y1="331.375" y2="346.375"/><polygon fill="#181818" points="281.1279,336.375,285.1279,346.375,289.1279,336.375,285.1279,340.375" style="stroke:#181818;stroke-width:1.0;"/><line style="stroke:#181818;stroke-width:1.0;" x1="285.1279" x2="285.1279" y1="140.1875" y2="160.1875"/><polygon fill="#181818" points="281.1279,150.1875,285.1279,160.1875,289.1279,150.1875,285.1279,154.1875" style="stroke:#181818;stroke-width:1.0;"/><line style="stroke:#181818;stroke-width:1.0;" x1="154.1484" x2="154.1484" y1="470.5625" y2="490.5625"/><polygon fill="#181818" points="150.1484,480.5625,154.1484,490.5625,158.1484,480.5625,154.1484,484.5625" style="stroke:#181818;stroke-width:1.0;"/><line style="stroke:#181818;stroke-width:1.0;" x1="219.3203" x2="154.1484" y1="413.4688" y2="413.4688"/><line style="stroke:#181818;stroke-width:1.0;" x1="154.1484" x2="154.1484" y1="413.4688" y2="435.4688"/><polygon fill="#181818" points="150.1484,425.4688,154.1484,435.4688,158.1484,425.4688,154.1484,429.4688" style="stroke:#181818;stroke-width:1.0;"/><line style="stroke:#181818;stroke-width:1.0;" x1="350.9355" x2="416.1074" y1="413.4688" y2="413.4688"/><line style="stroke:#181818;stroke-width:1.0;" x1="416.1074" x2="416.1074" y1="413.4688" y2="435.4688"/><polygon fill="#181818" points="412.1074,425.4688,416.1074,435.4688,420.1074,425.4688,416.1074,429.4688" style="stroke:#181818;stroke-width:1.0;"/><line style="stroke:#181818;stroke-width:1.0;" x1="154.1484" x2="154.1484" y1="525.6563" y2="543.6563"/><line style="stroke:#181818;stroke-width:1.0;" x1="154.1484" x2="273.1279" y1="543.6563" y2="543.6563"/><polygon fill="#181818" points="263.1279,539.6563,273.1279,543.6563,263.1279,547.6563,267.1279,543.6563" style="stroke:#181818;stroke-width:1.0;"/><line style="stroke:#181818;stroke-width:1.0;" x1="416.1074" x2="416.1074" y1="470.5625" y2="543.6563"/><line style="stroke:#181818;stroke-width:1.0;" x1="416.1074" x2="297.1279" y1="543.6563" y2="543.6563"/><polygon fill="#181818" points="307.1279,539.6563,297.1279,543.6563,307.1279,547.6563,303.1279,543.6563" style="stroke:#181818;stroke-width:1.0;"/><line style="stroke:#181818;stroke-width:1.0;" x1="285.1279" x2="285.1279" y1="381.4688" y2="401.4688"/><polygon fill="#181818" points="281.1279,391.4688,285.1279,401.4688,289.1279,391.4688,285.1279,395.4688" style="stroke:#181818;stroke-width:1.0;"/><line style="stroke:#181818;stroke-width:1.0;" x1="285.1279" x2="285.1279" y1="555.6563" y2="575.6563"/><polygon fill="#181818" points="281.1279,565.6563,285.1279,575.6563,289.1279,565.6563,285.1279,569.6563" style="stroke:#181818;stroke-width:1.0;"/><line style="stroke:#181818;stroke-width:1.0;" x1="285.1279" x2="285.1279" y1="610.75" y2="632.7305"/><polygon fill="#181818" points="281.1279,622.7305,285.1279,632.7305,289.1279,622.7305,285.1279,626.7305" style="stroke:#181818;stroke-width:1.0;"/><line style="stroke:#181818;stroke-width:1.0;" x1="285.1279" x2="285.1279" y1="667.8242" y2="699.8047"/><polygon fill="#181818" points="281.1279,689.8047,285.1279,699.8047,289.1279,689.8047,285.1279,693.8047" style="stroke:#181818;stroke-width:1.0;"/><!--SRC=[VL8nSi8m4EprYXjNKEG3KAG8ATB2y813EfiRPCcZavpXzv5a1m9Ct6ftxtRt9153L9kZK82HwLiWdWdsrB542cIW8FaHJvQsCqzRrXU1vjDmR21wI8F1I82GChnLYbjOVSs4Eg01xLtBeIVplYuR7Aok96i5y3ZoW2CrmAwwkCcXzmRjjh0F3lNbX04Cos3ncZMLCLam84bh4ccJjTUcA2JwGP4LWfNphmi_q6coYolt55Dm9UT_jP0ptAgdTdPaALBj9r3lnti_Spsc4DYxXMwc6TNP95ree8vxRU0X-cwIpERgxfgVJ0Dz5c7tdER-9mRis64LvKWEH-wmUWi-TUS2a-GVycfF8iOayuKonVai2zoTOxPqU03p6RHDXdxD25Y-q2RptfRk_0U_bTeYbrWb3PIDIfMVy0C0]--></g></svg>