<svg xmlns="http://www.w3.org/2000/svg" xmlns:xlink="http://www.w3.org/1999/xlink" contentStyleType="text/css" height="526px" preserveAspectRatio="none" style="width:570px;height:526px;background:#FFFFFF;" version="1.1" viewBox="0 0 570 526" width="570px" zoomAndPan="magnify"><defs/><g><ellipse cx="315.624" cy="20" fill="#222222" rx="10" ry="10" style="stroke:#222222;stroke-width:1.0;"/><rect fill="#F1F1F1" height="35.0938" rx="12.5" ry="12.5" style="stroke:#181818;stroke-width:0.5;" width="164.5918" x="233.3281" y="50"/><text fill="#000000" font-family="sans-serif" font-size="12" lengthAdjust="spacing" textLength="144.5918" x="243.3281" y="72.457">Display "Input Fields Page"</text><rect fill="#F1F1F1" height="35.0938" rx="12.5" ry="12.5" style="stroke:#181818;stroke-width:0.5;" width="140.7324" x="245.2578" y="105.0938"/><text fill="#000000" font-family="sans-serif" font-size="12" lengthAdjust="spacing" textLength="120.7324" x="255.2578" y="127.5508">Show app bar with title</text><path d="M413.3232,150.1875 L413.3232,175.7148 L393.3232,179.7148 L413.3232,183.7148 L413.3232,209.2422 A0,0 0 0 0 413.3232,209.2422 L558.5913,209.2422 A0,0 0 0 0 558.5913,209.2422 L558.5913,160.1875 L548.5913,150.1875 L413.3232,150.1875 A0,0 0 0 0 413.3232,150.1875 " fill="#FEFFDD" style="stroke:#181818;stroke-width:0.5;"/><path d="M548.5913,150.1875 L548.5913,160.1875 L558.5913,160.1875 L548.5913,150.1875 " fill="#FEFFDD" style="stroke:#181818;stroke-width:0.5;"/><text fill="#000000" font-family="sans-serif" font-size="13" lengthAdjust="spacing" textLength="124.2681" x="419.3232" y="168.6826">- Dynamic input fields</text><text fill="#000000" font-family="sans-serif" font-size="13" lengthAdjust="spacing" textLength="109.8271" x="419.3232" y="185.0342">- Dropdown menus</text><text fill="#000000" font-family="sans-serif" font-size="13" lengthAdjust="spacing" textLength="80.1899" x="419.3232" y="201.3857">- Date pickers</text><rect fill="#F1F1F1" height="35.0938" rx="12.5" ry="12.5" style="stroke:#181818;stroke-width:0.5;" width="155.3984" x="237.9248" y="162.168"/><text fill="#000000" font-family="sans-serif" font-size="12" lengthAdjust="spacing" textLength="135.3984" x="247.9248" y="184.625">Render form components</text><rect fill="#F1F1F1" height="35.0938" rx="12.5" ry="12.5" style="stroke:#181818;stroke-width:0.5;" width="192.5996" x="219.3242" y="229.2422"/><text fill="#000000" font-family="sans-serif" font-size="12" lengthAdjust="spacing" textLength="172.5996" x="229.3242" y="251.6992">Display "Next" button with tooltip</text><path d="M10,274.3359 L10,317.0391 L236.061,317.0391 L236.061,284.3359 L226.061,274.3359 L10,274.3359 " fill="#FEFFDD" style="stroke:#181818;stroke-width:0.5;"/><path d="M226.061,274.3359 L226.061,284.3359 L236.061,284.3359 L226.061,274.3359 " fill="#FEFFDD" style="stroke:#181818;stroke-width:0.5;"/><text fill="#000000" font-family="sans-serif" font-size="13" lengthAdjust="spacing" textLength="205.061" x="16" y="292.8311">"Next" button remains disabled until</text><text fill="#000000" font-family="sans-serif" font-size="13" lengthAdjust="spacing" textLength="187.8779" x="16" y="309.1826">all required fields are completed.</text><rect fill="#F1F1F1" height="35.0938" rx="12.5" ry="12.5" style="stroke:#181818;stroke-width:0.5;" width="130.5898" x="250.3291" y="365.957"/><text fill="#000000" font-family="sans-serif" font-size="12" lengthAdjust="spacing" textLength="110.5898" x="260.3291" y="388.4141">Enable "Next" button</text><ellipse cx="315.624" cy="440.0039" fill="none" rx="11" ry="11" style="stroke:#222222;stroke-width:1.0;"/><ellipse cx="315.624" cy="440.0039" fill="#222222" rx="6" ry="6" style="stroke:#222222;stroke-width:1.0;"/><polygon fill="#F1F1F1" points="248.061,317.0391,383.187,317.0391,395.187,329.0391,383.187,341.0391,248.061,341.0391,236.061,329.0391,248.061,317.0391" style="stroke:#181818;stroke-width:0.5;"/><text fill="#000000" font-family="sans-serif" font-size="11" lengthAdjust="spacing" textLength="17.1177" x="319.624" y="352.458">yes</text><text fill="#000000" font-family="sans-serif" font-size="11" lengthAdjust="spacing" textLength="135.126" x="248.061" y="333.54">Are all required fields filled?</text><text fill="#000000" font-family="sans-serif" font-size="11" lengthAdjust="spacing" textLength="12.2354" x="395.187" y="326.6221">no</text><ellipse cx="315.624" cy="504.0039" fill="none" rx="11" ry="11" style="stroke:#222222;stroke-width:1.0;"/><ellipse cx="315.624" cy="504.0039" fill="#222222" rx="6" ry="6" style="stroke:#222222;stroke-width:1.0;"/><line style="stroke:#181818;stroke-width:1.0;" x1="315.624" x2="315.624" y1="30" y2="50"/><polygon fill="#181818" points="311.624,40,315.624,50,319.624,40,315.624,44" style="stroke:#181818;stroke-width:1.0;"/><line style="stroke:#181818;stroke-width:1.0;" x1="315.624" x2="315.624" y1="85.0938" y2="105.0938"/><polygon fill="#181818" points="311.624,95.0938,315.624,105.0938,319.624,95.0938,315.624,99.0938" style="stroke:#181818;stroke-width:1.0;"/><line style="stroke:#181818;stroke-width:1.0;" x1="315.624" x2="315.624" y1="140.1875" y2="162.168"/><polygon fill="#181818" points="311.624,152.168,315.624,162.168,319.624,152.168,315.624,156.168" style="stroke:#181818;stroke-width:1.0;"/><line style="stroke:#181818;stroke-width:1.0;" x1="315.624" x2="315.624" y1="197.2617" y2="229.2422"/><polygon fill="#181818" points="311.624,219.2422,315.624,229.2422,319.624,219.2422,315.624,223.2422" style="stroke:#181818;stroke-width:1.0;"/><line style="stroke:#181818;stroke-width:1.0;" x1="315.624" x2="315.624" y1="401.0508" y2="429.0039"/><polygon fill="#181818" points="311.624,419.0039,315.624,429.0039,319.624,419.0039,315.624,423.0039" style="stroke:#181818;stroke-width:1.0;"/><line style="stroke:#181818;stroke-width:1.0;" x1="315.624" x2="315.624" y1="341.0391" y2="365.957"/><polygon fill="#181818" points="311.624,355.957,315.624,365.957,319.624,355.957,315.624,359.957" style="stroke:#181818;stroke-width:1.0;"/><line style="stroke:#181818;stroke-width:1.0;" x1="395.187" x2="407.187" y1="329.0391" y2="329.0391"/><polygon fill="#181818" points="403.187,399.0039,407.187,409.0039,411.187,399.0039,407.187,403.0039" style="stroke:#181818;stroke-width:1.0;"/><line style="stroke:#181818;stroke-width:1.0;" x1="407.187" x2="407.187" y1="329.0391" y2="473.0039"/><line style="stroke:#181818;stroke-width:1.0;" x1="407.187" x2="315.624" y1="473.0039" y2="473.0039"/><line style="stroke:#181818;stroke-width:1.0;" x1="315.624" x2="315.624" y1="473.0039" y2="493.0039"/><polygon fill="#181818" points="311.624,483.0039,315.624,493.0039,319.624,483.0039,315.624,487.0039" style="stroke:#181818;stroke-width:1.0;"/><line style="stroke:#181818;stroke-width:1.0;" x1="315.624" x2="315.624" y1="264.3359" y2="317.0391"/><polygon fill="#181818" points="311.624,307.0391,315.624,317.0391,319.624,307.0391,315.624,311.0391" style="stroke:#181818;stroke-width:1.0;"/><!--SRC=[RP11JiKm34JtESMeg_u57A1T8AGF4Xk4u0Hfu_vQf4v8N9NUdhHKY8zO9SfCteoTrIOrpPbpz7P5zIHnLZmoUPVnOYzKjQPv6yC26oCwcx2mZb1MJqLv9N6KC8GqeGzJ34AYkJKIb93uCge1Rd1UnKxSWtVwiDE_XHIY2ujW8fcF9rk-HkxVAMLJyDXOvbV5P_hK2jsi6kHe4u9NZgqnFA2-JmJhFH9zp9p87Ndby9xStGawag1UAPzAOFCWjlDqZMsBa3L4GpuJQWcRysec_EcHQB8i6OxpXdEOHTdlnl-wsD9nsvSd9NTRR3-3bWiFncpfNm00]--></g></svg>