<svg xmlns="http://www.w3.org/2000/svg" xmlns:xlink="http://www.w3.org/1999/xlink" contentStyleType="text/css" height="629px" preserveAspectRatio="none" style="width:726px;height:629px;background:#FFFFFF;" version="1.1" viewBox="0 0 726 629" width="726px" zoomAndPan="magnify"><defs/><g><ellipse cx="353.448" cy="20" fill="#222222" rx="10" ry="10" style="stroke:#222222;stroke-width:1.0;"/><rect fill="#F1F1F1" height="35.0938" rx="12.5" ry="12.5" style="stroke:#181818;stroke-width:0.5;" width="155.9199" x="275.488" y="50"/><text fill="#000000" font-family="sans-serif" font-size="12" lengthAdjust="spacing" textLength="135.9199" x="285.488" y="72.457">Display "Checkbox Page"</text><rect fill="#F1F1F1" height="35.0938" rx="12.5" ry="12.5" style="stroke:#181818;stroke-width:0.5;" width="140.7324" x="283.0818" y="105.0938"/><text fill="#000000" font-family="sans-serif" font-size="12" lengthAdjust="spacing" textLength="120.7324" x="293.0818" y="127.5508">Show app bar with title</text><path d="M472.8298,156.3828 L472.8298,173.7344 L452.8298,177.7344 L472.8298,181.7344 L472.8298,199.0859 A0,0 0 0 0 472.8298,199.0859 L660.7605,199.0859 A0,0 0 0 0 660.7605,199.0859 L660.7605,166.3828 L650.7605,156.3828 L472.8298,156.3828 A0,0 0 0 0 472.8298,156.3828 " fill="#FEFFDD" style="stroke:#181818;stroke-width:0.5;"/><path d="M650.7605,156.3828 L650.7605,166.3828 L660.7605,166.3828 L650.7605,156.3828 " fill="#FEFFDD" style="stroke:#181818;stroke-width:0.5;"/><text fill="#000000" font-family="sans-serif" font-size="13" lengthAdjust="spacing" textLength="166.9307" x="478.8298" y="174.8779">Instructions guide the user to</text><text fill="#000000" font-family="sans-serif" font-size="13" lengthAdjust="spacing" textLength="159.6943" x="478.8298" y="191.2295">select relevant checkboxes.</text><rect fill="#F1F1F1" height="35.0938" rx="12.5" ry="12.5" style="stroke:#181818;stroke-width:0.5;" width="198.7637" x="254.0662" y="160.1875"/><text fill="#000000" font-family="sans-serif" font-size="12" lengthAdjust="spacing" textLength="178.7637" x="264.0662" y="182.6445">Show subheader with instructions</text><rect fill="#F1F1F1" height="35.0938" rx="12.5" ry="12.5" style="stroke:#181818;stroke-width:0.5;" width="215.293" x="245.8015" y="219.0859"/><text fill="#000000" font-family="sans-serif" font-size="12" lengthAdjust="spacing" textLength="195.293" x="255.8015" y="241.543">Display "Collapse/Expand All" button</text><path d="M486.8308,270.375 L486.8308,287.7266 L466.8308,291.7266 L486.8308,295.7266 L486.8308,313.0781 A0,0 0 0 0 486.8308,313.0781 L714.5232,313.0781 A0,0 0 0 0 714.5232,313.0781 L714.5232,280.375 L704.5232,270.375 L486.8308,270.375 A0,0 0 0 0 486.8308,270.375 " fill="#FEFFDD" style="stroke:#181818;stroke-width:0.5;"/><path d="M704.5232,270.375 L704.5232,280.375 L714.5232,280.375 L704.5232,270.375 " fill="#FEFFDD" style="stroke:#181818;stroke-width:0.5;"/><text fill="#000000" font-family="sans-serif" font-size="13" lengthAdjust="spacing" textLength="206.6924" x="492.8308" y="288.8701">Checkboxes are rendered based on</text><text fill="#000000" font-family="sans-serif" font-size="13" lengthAdjust="spacing" textLength="177.0615" x="492.8308" y="305.2217">available data or configuration.</text><rect fill="#F1F1F1" height="35.0938" rx="12.5" ry="12.5" style="stroke:#181818;stroke-width:0.5;" width="226.7656" x="240.0652" y="274.1797"/><text fill="#000000" font-family="sans-serif" font-size="12" lengthAdjust="spacing" textLength="206.7656" x="250.0652" y="296.6367">Render checkbox sections dynamically</text><rect fill="#F1F1F1" height="35.0938" rx="12.5" ry="12.5" style="stroke:#181818;stroke-width:0.5;" width="186.6055" x="260.1453" y="333.0781"/><text fill="#000000" font-family="sans-serif" font-size="12" lengthAdjust="spacing" textLength="166.6055" x="270.1453" y="355.5352">Show "Start Processing" button</text><path d="M10,378.1719 L10,420.875 L277.2446,420.875 L277.2446,388.1719 L267.2446,378.1719 L10,378.1719 " fill="#FEFFDD" style="stroke:#181818;stroke-width:0.5;"/><path d="M267.2446,378.1719 L267.2446,388.1719 L277.2446,388.1719 L267.2446,378.1719 " fill="#FEFFDD" style="stroke:#181818;stroke-width:0.5;"/><text fill="#000000" font-family="sans-serif" font-size="13" lengthAdjust="spacing" textLength="246.2446" x="16" y="396.667">"Start Processing" button remains disabled</text><text fill="#000000" font-family="sans-serif" font-size="13" lengthAdjust="spacing" textLength="221.8506" x="16" y="413.0186">until at least one checkbox is selected.</text><rect fill="#F1F1F1" height="35.0938" rx="12.5" ry="12.5" style="stroke:#181818;stroke-width:0.5;" width="193.9531" x="256.4714" y="469.793"/><text fill="#000000" font-family="sans-serif" font-size="12" lengthAdjust="spacing" textLength="173.9531" x="266.4714" y="492.25">Enable "Start Processing" button</text><ellipse cx="353.448" cy="543.8398" fill="none" rx="11" ry="11" style="stroke:#222222;stroke-width:1.0;"/><ellipse cx="353.448" cy="543.8398" fill="#222222" rx="6" ry="6" style="stroke:#222222;stroke-width:1.0;"/><polygon fill="#F1F1F1" points="289.2446,420.875,417.6514,420.875,429.6514,432.875,417.6514,444.875,289.2446,444.875,277.2446,432.875,289.2446,420.875" style="stroke:#181818;stroke-width:0.5;"/><text fill="#000000" font-family="sans-serif" font-size="11" lengthAdjust="spacing" textLength="17.1177" x="357.448" y="456.2939">yes</text><text fill="#000000" font-family="sans-serif" font-size="11" lengthAdjust="spacing" textLength="128.4067" x="289.2446" y="437.376">Are checkboxes selected?</text><text fill="#000000" font-family="sans-serif" font-size="11" lengthAdjust="spacing" textLength="12.2354" x="429.6514" y="430.458">no</text><ellipse cx="353.448" cy="607.8398" fill="none" rx="11" ry="11" style="stroke:#222222;stroke-width:1.0;"/><ellipse cx="353.448" cy="607.8398" fill="#222222" rx="6" ry="6" style="stroke:#222222;stroke-width:1.0;"/><line style="stroke:#181818;stroke-width:1.0;" x1="353.448" x2="353.448" y1="30" y2="50"/><polygon fill="#181818" points="349.448,40,353.448,50,357.448,40,353.448,44" style="stroke:#181818;stroke-width:1.0;"/><line style="stroke:#181818;stroke-width:1.0;" x1="353.448" x2="353.448" y1="85.0938" y2="105.0938"/><polygon fill="#181818" points="349.448,95.0938,353.448,105.0938,357.448,95.0938,353.448,99.0938" style="stroke:#181818;stroke-width:1.0;"/><line style="stroke:#181818;stroke-width:1.0;" x1="353.448" x2="353.448" y1="140.1875" y2="160.1875"/><polygon fill="#181818" points="349.448,150.1875,353.448,160.1875,357.448,150.1875,353.448,154.1875" style="stroke:#181818;stroke-width:1.0;"/><line style="stroke:#181818;stroke-width:1.0;" x1="353.448" x2="353.448" y1="195.2813" y2="219.0859"/><polygon fill="#181818" points="349.448,209.0859,353.448,219.0859,357.448,209.0859,353.448,213.0859" style="stroke:#181818;stroke-width:1.0;"/><line style="stroke:#181818;stroke-width:1.0;" x1="353.448" x2="353.448" y1="254.1797" y2="274.1797"/><polygon fill="#181818" points="349.448,264.1797,353.448,274.1797,357.448,264.1797,353.448,268.1797" style="stroke:#181818;stroke-width:1.0;"/><line style="stroke:#181818;stroke-width:1.0;" x1="353.448" x2="353.448" y1="309.2734" y2="333.0781"/><polygon fill="#181818" points="349.448,323.0781,353.448,333.0781,357.448,323.0781,353.448,327.0781" style="stroke:#181818;stroke-width:1.0;"/><line style="stroke:#181818;stroke-width:1.0;" x1="353.448" x2="353.448" y1="504.8867" y2="532.8398"/><polygon fill="#181818" points="349.448,522.8398,353.448,532.8398,357.448,522.8398,353.448,526.8398" style="stroke:#181818;stroke-width:1.0;"/><line style="stroke:#181818;stroke-width:1.0;" x1="353.448" x2="353.448" y1="444.875" y2="469.793"/><polygon fill="#181818" points="349.448,459.793,353.448,469.793,357.448,459.793,353.448,463.793" style="stroke:#181818;stroke-width:1.0;"/><line style="stroke:#181818;stroke-width:1.0;" x1="429.6514" x2="460.4246" y1="432.875" y2="432.875"/><polygon fill="#181818" points="456.4246,502.8398,460.4246,512.8398,464.4246,502.8398,460.4246,506.8398" style="stroke:#181818;stroke-width:1.0;"/><line style="stroke:#181818;stroke-width:1.0;" x1="460.4246" x2="460.4246" y1="432.875" y2="576.8398"/><line style="stroke:#181818;stroke-width:1.0;" x1="460.4246" x2="353.448" y1="576.8398" y2="576.8398"/><line style="stroke:#181818;stroke-width:1.0;" x1="353.448" x2="353.448" y1="576.8398" y2="596.8398"/><polygon fill="#181818" points="349.448,586.8398,353.448,596.8398,357.448,586.8398,353.448,590.8398" style="stroke:#181818;stroke-width:1.0;"/><line style="stroke:#181818;stroke-width:1.0;" x1="353.448" x2="353.448" y1="368.1719" y2="420.875"/><polygon fill="#181818" points="349.448,410.875,353.448,420.875,357.448,410.875,353.448,414.875" style="stroke:#181818;stroke-width:1.0;"/><!--SRC=[VP31Ri9034Jl-nLMJd2XTpXKY7Be3PKlSB8ciRhiHci7oD_NYGA1IkqbYM9xvis8ObQt_c1f0_PGx1gglijqWmFML6pS-jYaAs3RGeaPhgmDA6kW-qIwiY7qDCquYkQkKavHDYuc9SXSD-e0Ffz6K7Vi2RGXwCHkDTc2KA1A8TlhWb6Xcb18LewYXq7DFQEc4B0LUjlVMhJvDeG2oaurHQFxiXDJlekO-cJj-uXdhZ24_XVXxc48cEttg43UaeizKxGLl207B0E1HqL8Pf3YYUikuw3-0ZhsKno7Wk6GKqKY7EiPqV495bipceDE7P1_NmxbH5Zq94lpNU_ZwFgFd1MegNKKX60Hqt3raWx-FhQeP-IX6vR1ne_hNLGEW0g1KDJopwJ0C-hAbX-fxODFpWqaFm00]--></g></svg>