<svg xmlns="http://www.w3.org/2000/svg" xmlns:xlink="http://www.w3.org/1999/xlink" contentStyleType="text/css" height="443px" preserveAspectRatio="none" style="width:629px;height:443px;background:#FFFFFF;" version="1.1" viewBox="0 0 629 443" width="629px" zoomAndPan="magnify"><defs/><g><ellipse cx="293.7859" cy="20" fill="#222222" rx="10" ry="10" style="stroke:#222222;stroke-width:1.0;"/><rect fill="#F1F1F1" height="35.0938" rx="12.5" ry="12.5" style="stroke:#181818;stroke-width:0.5;" width="185.3926" x="201.0896" y="50"/><text fill="#000000" font-family="sans-serif" font-size="12" lengthAdjust="spacing" textLength="165.3926" x="211.0896" y="72.457">User views the list of templates</text><rect fill="#F1F1F1" height="35.0938" rx="12.5" ry="12.5" style="stroke:#181818;stroke-width:0.5;" width="145.3848" x="221.0935" y="105.0938"/><text fill="#000000" font-family="sans-serif" font-size="12" lengthAdjust="spacing" textLength="125.3848" x="231.0935" y="127.5508">User selects a template</text><rect fill="#F1F1F1" height="35.0938" rx="12.5" ry="12.5" style="stroke:#181818;stroke-width:0.5;" width="208.7363" x="189.4177" y="160.1875"/><text fill="#000000" font-family="sans-serif" font-size="12" lengthAdjust="spacing" textLength="188.7363" x="199.4177" y="182.6445">System confirms template selection</text><path d="M10,205.2813 L10,247.9844 L225.2256,247.9844 L225.2256,215.2813 L215.2256,205.2813 L10,205.2813 " fill="#FEFFDD" style="stroke:#181818;stroke-width:0.5;"/><path d="M215.2256,205.2813 L215.2256,215.2813 L225.2256,215.2813 L215.2256,205.2813 " fill="#FEFFDD" style="stroke:#181818;stroke-width:0.5;"/><text fill="#000000" font-family="sans-serif" font-size="13" lengthAdjust="spacing" textLength="194.2256" x="16" y="223.7764">The "Next" button is disabled until</text><text fill="#000000" font-family="sans-serif" font-size="13" lengthAdjust="spacing" textLength="129.3462" x="16" y="240.1279">a template is selected.</text><rect fill="#F1F1F1" height="35.0938" rx="12.5" ry="12.5" style="stroke:#181818;stroke-width:0.5;" width="169.25" x="209.1609" y="296.9023"/><text fill="#000000" font-family="sans-serif" font-size="12" lengthAdjust="spacing" textLength="149.25" x="219.1609" y="319.3594">Display "Template selected"</text><path d="M402.5007,348.1914 L402.5007,365.543 L382.5007,369.543 L402.5007,373.543 L402.5007,390.8945 A0,0 0 0 0 402.5007,390.8945 L617.8723,390.8945 A0,0 0 0 0 617.8723,390.8945 L617.8723,358.1914 L607.8723,348.1914 L402.5007,348.1914 A0,0 0 0 0 402.5007,348.1914 " fill="#FEFFDD" style="stroke:#181818;stroke-width:0.5;"/><path d="M607.8723,348.1914 L607.8723,358.1914 L617.8723,358.1914 L607.8723,348.1914 " fill="#FEFFDD" style="stroke:#181818;stroke-width:0.5;"/><text fill="#000000" font-family="sans-serif" font-size="13" lengthAdjust="spacing" textLength="194.3716" x="408.5007" y="366.6865">User is redirected to the next step</text><text fill="#000000" font-family="sans-serif" font-size="13" lengthAdjust="spacing" textLength="142.3462" x="408.5007" y="383.0381">to start filling input fields.</text><rect fill="#F1F1F1" height="35.0938" rx="12.5" ry="12.5" style="stroke:#181818;stroke-width:0.5;" width="177.4297" x="205.071" y="351.9961"/><text fill="#000000" font-family="sans-serif" font-size="12" lengthAdjust="spacing" textLength="157.4297" x="215.071" y="374.4531">Navigate to Input Fields Page</text><polygon fill="#F1F1F1" points="237.2256,247.9844,350.3462,247.9844,362.3462,259.9844,350.3462,271.9844,237.2256,271.9844,225.2256,259.9844,237.2256,247.9844" style="stroke:#181818;stroke-width:0.5;"/><text fill="#000000" font-family="sans-serif" font-size="11" lengthAdjust="spacing" textLength="17.1177" x="297.7859" y="283.4033">yes</text><text fill="#000000" font-family="sans-serif" font-size="11" lengthAdjust="spacing" textLength="113.1206" x="237.2256" y="264.4854">Is a template selected?</text><text fill="#000000" font-family="sans-serif" font-size="11" lengthAdjust="spacing" textLength="12.2354" x="362.3462" y="257.5674">no</text><ellipse cx="396.5815" cy="217.2813" fill="none" rx="11" ry="11" style="stroke:#222222;stroke-width:1.0;"/><ellipse cx="396.5815" cy="217.2813" fill="#222222" rx="6" ry="6" style="stroke:#222222;stroke-width:1.0;"/><ellipse cx="293.7859" cy="421.8945" fill="none" rx="11" ry="11" style="stroke:#222222;stroke-width:1.0;"/><ellipse cx="293.7859" cy="421.8945" fill="#222222" rx="6" ry="6" style="stroke:#222222;stroke-width:1.0;"/><line style="stroke:#181818;stroke-width:1.0;" x1="293.7859" x2="293.7859" y1="30" y2="50"/><polygon fill="#181818" points="289.7859,40,293.7859,50,297.7859,40,293.7859,44" style="stroke:#181818;stroke-width:1.0;"/><line style="stroke:#181818;stroke-width:1.0;" x1="293.7859" x2="293.7859" y1="85.0938" y2="105.0938"/><polygon fill="#181818" points="289.7859,95.0938,293.7859,105.0938,297.7859,95.0938,293.7859,99.0938" style="stroke:#181818;stroke-width:1.0;"/><line style="stroke:#181818;stroke-width:1.0;" x1="293.7859" x2="293.7859" y1="140.1875" y2="160.1875"/><polygon fill="#181818" points="289.7859,150.1875,293.7859,160.1875,297.7859,150.1875,293.7859,154.1875" style="stroke:#181818;stroke-width:1.0;"/><line style="stroke:#181818;stroke-width:1.0;" x1="293.7859" x2="293.7859" y1="331.9961" y2="351.9961"/><polygon fill="#181818" points="289.7859,341.9961,293.7859,351.9961,297.7859,341.9961,293.7859,345.9961" style="stroke:#181818;stroke-width:1.0;"/><line style="stroke:#181818;stroke-width:1.0;" x1="293.7859" x2="293.7859" y1="271.9844" y2="296.9023"/><polygon fill="#181818" points="289.7859,286.9023,293.7859,296.9023,297.7859,286.9023,293.7859,290.9023" style="stroke:#181818;stroke-width:1.0;"/><line style="stroke:#181818;stroke-width:1.0;" x1="385.5815" x2="362.3462" y1="217.2813" y2="259.9844"/><polygon fill="#181818" points="375.5815,213.2813,385.5815,217.2813,375.5815,221.2813,379.5815,217.2813" style="stroke:#181818;stroke-width:1.0;"/><line style="stroke:#181818;stroke-width:1.0;" x1="293.7859" x2="293.7859" y1="387.0898" y2="410.8945"/><polygon fill="#181818" points="289.7859,400.8945,293.7859,410.8945,297.7859,400.8945,293.7859,404.8945" style="stroke:#181818;stroke-width:1.0;"/><line style="stroke:#181818;stroke-width:1.0;" x1="293.7859" x2="293.7859" y1="195.2813" y2="247.9844"/><polygon fill="#181818" points="289.7859,237.9844,293.7859,247.9844,297.7859,237.9844,293.7859,241.9844" style="stroke:#181818;stroke-width:1.0;"/><!--SRC=[PP0nRiCm34LtdUB3axtq0F7GfIYG9IZGz01AJ3i45CaGwRI-VId13T9s4_KV_oSfwhEwtOTGnetfKw0NGc1Hf15Arpbu9UatH2ZGMGN-BfdolefLEASuShxANTfeJh5tZaUq-yV6JQNXkIkP4UrAqZbWzy9Yn8hc-1Tj-g8V_8sdygq9-pWlYbUcC0ZU_4I5YCd4pDD5hG3gv2p8D72kFgMpx1dfIs73pvMpJoddmCWXS9p0rNoiva-6K1ogjwCWX3Qcxd_OqMoRW_asE2sgAPRaWSMVWkKkKJbKxk4G1lmi-2i5DawQdTKyEbVUtm00]--></g></svg>