<svg xmlns="http://www.w3.org/2000/svg" xmlns:xlink="http://www.w3.org/1999/xlink" contentStyleType="text/css" height="933px" preserveAspectRatio="none" style="width:231px;height:933px;background:#FFFFFF;" version="1.1" viewBox="0 0 231 933" width="231px" zoomAndPan="magnify"><defs/><g><ellipse cx="115.71" cy="20" fill="#222222" rx="10" ry="10" style="stroke:#222222;stroke-width:1.0;"/><rect fill="#F1F1F1" height="35.0938" rx="12.5" ry="12.5" style="stroke:#181818;stroke-width:0.5;" width="136.7129" x="47.3535" y="50"/><text fill="#000000" font-family="sans-serif" font-size="12" lengthAdjust="spacing" textLength="116.7129" x="57.3535" y="72.457">User logs in as Admin</text><rect fill="#F1F1F1" height="35.0938" rx="12.5" ry="12.5" style="stroke:#181818;stroke-width:0.5;" width="202.0977" x="14.6611" y="105.0938"/><text fill="#000000" font-family="sans-serif" font-size="12" lengthAdjust="spacing" textLength="182.0977" x="24.6611" y="127.5508">Admin sees the Admin Dashboard</text><rect fill="#555555" height="6" rx="2.5" ry="2.5" style="stroke:#555555;stroke-width:1.0;" width="209.4199" x="11" y="160.1875"/><rect fill="#F1F1F1" height="50.1875" rx="12.5" ry="12.5" style="stroke:#181818;stroke-width:0.5;" width="181.4199" x="25" y="186.1875"/><text fill="#000000" font-family="sans-serif" font-size="12" lengthAdjust="spacing" textLength="115.4004" x="35" y="208.6445">Admin can choose to:</text><text fill="#000000" font-family="sans-serif" font-size="12" lengthAdjust="spacing" textLength="161.4199" x="35" y="223.7383">- Upload Standard Documents</text><rect fill="#F1F1F1" height="35.0938" rx="12.5" ry="12.5" style="stroke:#181818;stroke-width:0.5;" width="87.3477" x="72.0361" y="256.375"/><text fill="#000000" font-family="sans-serif" font-size="12" lengthAdjust="spacing" textLength="64.0137" x="85.3701" y="278.832">View Users;</text><rect fill="#F1F1F1" height="35.0938" rx="12.5" ry="12.5" style="stroke:#181818;stroke-width:0.5;" width="91.3555" x="70.0322" y="311.4688"/><text fill="#000000" font-family="sans-serif" font-size="12" lengthAdjust="spacing" textLength="68.0215" x="83.3662" y="333.9258">Create User;</text><rect fill="#F1F1F1" height="35.0938" rx="12.5" ry="12.5" style="stroke:#181818;stroke-width:0.5;" width="178.0742" x="26.6729" y="366.5625"/><text fill="#000000" font-family="sans-serif" font-size="12" lengthAdjust="spacing" textLength="154.7402" x="40.0068" y="389.0195">Navigate to the File Explorer;</text><rect fill="#555555" height="6" rx="2.5" ry="2.5" style="stroke:#555555;stroke-width:1.0;" width="209.4199" x="11" y="421.6563"/><rect fill="#555555" height="6" rx="2.5" ry="2.5" style="stroke:#555555;stroke-width:1.0;" width="183.375" x="24.0225" y="447.6563"/><rect fill="#F1F1F1" height="50.1875" rx="12.5" ry="12.5" style="stroke:#181818;stroke-width:0.5;" width="149.3809" x="41.0195" y="473.6563"/><text fill="#000000" font-family="sans-serif" font-size="12" lengthAdjust="spacing" textLength="112.7168" x="51.0195" y="496.1133">Admin can also view:</text><text fill="#000000" font-family="sans-serif" font-size="12" lengthAdjust="spacing" textLength="129.3809" x="51.0195" y="511.207">- Document Trend Chart</text><rect fill="#F1F1F1" height="35.0938" rx="12.5" ry="12.5" style="stroke:#181818;stroke-width:0.5;" width="155.375" x="38.0225" y="543.8438"/><text fill="#000000" font-family="sans-serif" font-size="12" lengthAdjust="spacing" textLength="132.041" x="51.3564" y="566.3008">High-Level Metric Cards;</text><rect fill="#F1F1F1" height="35.0938" rx="12.5" ry="12.5" style="stroke:#181818;stroke-width:0.5;" width="96.7109" x="67.3545" y="598.9375"/><text fill="#000000" font-family="sans-serif" font-size="12" lengthAdjust="spacing" textLength="73.377" x="80.6885" y="621.3945">Login Trends;</text><rect fill="#F1F1F1" height="35.0938" rx="12.5" ry="12.5" style="stroke:#181818;stroke-width:0.5;" width="117.3711" x="57.0244" y="654.0313"/><text fill="#000000" font-family="sans-serif" font-size="12" lengthAdjust="spacing" textLength="94.0371" x="70.3584" y="676.4883">Document Types;</text><rect fill="#F1F1F1" height="35.0938" rx="12.5" ry="12.5" style="stroke:#181818;stroke-width:0.5;" width="82.0156" x="74.7021" y="709.125"/><text fill="#000000" font-family="sans-serif" font-size="12" lengthAdjust="spacing" textLength="58.6816" x="88.0361" y="731.582">Top Users;</text><rect fill="#F1F1F1" height="35.0938" rx="12.5" ry="12.5" style="stroke:#181818;stroke-width:0.5;" width="137.375" x="47.0225" y="764.2188"/><text fill="#000000" font-family="sans-serif" font-size="12" lengthAdjust="spacing" textLength="114.041" x="60.3564" y="786.6758">User Statistics Panel;</text><rect fill="#F1F1F1" height="35.0938" rx="12.5" ry="12.5" style="stroke:#181818;stroke-width:0.5;" width="126.6934" x="52.3633" y="819.3125"/><text fill="#000000" font-family="sans-serif" font-size="12" lengthAdjust="spacing" textLength="103.3594" x="65.6973" y="841.7695">User Activity Table;</text><rect fill="#555555" height="6" rx="2.5" ry="2.5" style="stroke:#555555;stroke-width:1.0;" width="183.375" x="24.0225" y="874.4063"/><ellipse cx="115.71" cy="911.4063" fill="none" rx="11" ry="11" style="stroke:#222222;stroke-width:1.0;"/><ellipse cx="115.71" cy="911.4063" fill="#222222" rx="6" ry="6" style="stroke:#222222;stroke-width:1.0;"/><line style="stroke:#181818;stroke-width:1.0;" x1="115.71" x2="115.71" y1="30" y2="50"/><polygon fill="#181818" points="111.71,40,115.71,50,119.71,40,115.71,44" style="stroke:#181818;stroke-width:1.0;"/><line style="stroke:#181818;stroke-width:1.0;" x1="115.71" x2="115.71" y1="85.0938" y2="105.0938"/><polygon fill="#181818" points="111.71,95.0938,115.71,105.0938,119.71,95.0938,115.71,99.0938" style="stroke:#181818;stroke-width:1.0;"/><line style="stroke:#181818;stroke-width:1.0;" x1="115.71" x2="115.71" y1="236.375" y2="256.375"/><polygon fill="#181818" points="111.71,246.375,115.71,256.375,119.71,246.375,115.71,250.375" style="stroke:#181818;stroke-width:1.0;"/><line style="stroke:#181818;stroke-width:1.0;" x1="115.71" x2="115.71" y1="291.4688" y2="311.4688"/><polygon fill="#181818" points="111.71,301.4688,115.71,311.4688,119.71,301.4688,115.71,305.4688" style="stroke:#181818;stroke-width:1.0;"/><line style="stroke:#181818;stroke-width:1.0;" x1="115.71" x2="115.71" y1="346.5625" y2="366.5625"/><polygon fill="#181818" points="111.71,356.5625,115.71,366.5625,119.71,356.5625,115.71,360.5625" style="stroke:#181818;stroke-width:1.0;"/><line style="stroke:#181818;stroke-width:1.0;" x1="115.71" x2="115.71" y1="166.1875" y2="186.1875"/><polygon fill="#181818" points="111.71,176.1875,115.71,186.1875,119.71,176.1875,115.71,180.1875" style="stroke:#181818;stroke-width:1.0;"/><line style="stroke:#181818;stroke-width:1.0;" x1="115.71" x2="115.71" y1="401.6563" y2="421.6563"/><polygon fill="#181818" points="111.71,411.6563,115.71,421.6563,119.71,411.6563,115.71,415.6563" style="stroke:#181818;stroke-width:1.0;"/><line style="stroke:#181818;stroke-width:1.0;" x1="115.71" x2="115.71" y1="140.1875" y2="160.1875"/><polygon fill="#181818" points="111.71,150.1875,115.71,160.1875,119.71,150.1875,115.71,154.1875" style="stroke:#181818;stroke-width:1.0;"/><line style="stroke:#181818;stroke-width:1.0;" x1="115.71" x2="115.71" y1="523.8438" y2="543.8438"/><polygon fill="#181818" points="111.71,533.8438,115.71,543.8438,119.71,533.8438,115.71,537.8438" style="stroke:#181818;stroke-width:1.0;"/><line style="stroke:#181818;stroke-width:1.0;" x1="115.71" x2="115.71" y1="578.9375" y2="598.9375"/><polygon fill="#181818" points="111.71,588.9375,115.71,598.9375,119.71,588.9375,115.71,592.9375" style="stroke:#181818;stroke-width:1.0;"/><line style="stroke:#181818;stroke-width:1.0;" x1="115.71" x2="115.71" y1="634.0313" y2="654.0313"/><polygon fill="#181818" points="111.71,644.0313,115.71,654.0313,119.71,644.0313,115.71,648.0313" style="stroke:#181818;stroke-width:1.0;"/><line style="stroke:#181818;stroke-width:1.0;" x1="115.71" x2="115.71" y1="689.125" y2="709.125"/><polygon fill="#181818" points="111.71,699.125,115.71,709.125,119.71,699.125,115.71,703.125" style="stroke:#181818;stroke-width:1.0;"/><line style="stroke:#181818;stroke-width:1.0;" x1="115.71" x2="115.71" y1="744.2188" y2="764.2188"/><polygon fill="#181818" points="111.71,754.2188,115.71,764.2188,119.71,754.2188,115.71,758.2188" style="stroke:#181818;stroke-width:1.0;"/><line style="stroke:#181818;stroke-width:1.0;" x1="115.71" x2="115.71" y1="799.3125" y2="819.3125"/><polygon fill="#181818" points="111.71,809.3125,115.71,819.3125,119.71,809.3125,115.71,813.3125" style="stroke:#181818;stroke-width:1.0;"/><line style="stroke:#181818;stroke-width:1.0;" x1="115.71" x2="115.71" y1="453.6563" y2="473.6563"/><polygon fill="#181818" points="111.71,463.6563,115.71,473.6563,119.71,463.6563,115.71,467.6563" style="stroke:#181818;stroke-width:1.0;"/><line style="stroke:#181818;stroke-width:1.0;" x1="115.71" x2="115.71" y1="854.4063" y2="874.4063"/><polygon fill="#181818" points="111.71,864.4063,115.71,874.4063,119.71,864.4063,115.71,868.4063" style="stroke:#181818;stroke-width:1.0;"/><line style="stroke:#181818;stroke-width:1.0;" x1="115.71" x2="115.71" y1="427.6563" y2="447.6563"/><polygon fill="#181818" points="111.71,437.6563,115.71,447.6563,119.71,437.6563,115.71,441.6563" style="stroke:#181818;stroke-width:1.0;"/><line style="stroke:#181818;stroke-width:1.0;" x1="115.71" x2="115.71" y1="880.4063" y2="900.4063"/><polygon fill="#181818" points="111.71,890.4063,115.71,900.4063,119.71,890.4063,115.71,894.4063" style="stroke:#181818;stroke-width:1.0;"/><!--SRC=[RP0nRiCm34Ltd-9V81Umfy19qI4j2iJfpjYiBLGH3P5rcjjNbbtKGmT1q2Fv-R_KA5fHNfGZlFGA5q2AVNTpeIhAV4EP5JRmWd4W7Qv2iQkAuaFYPm6iZIsbCuWemwHCV8VBw8Kwd8r2bqPmaFRhni6qokLtntVCszTt7PcCCrd0Aqskdv59jl3aFEFudLJZtCAXonR-CK9U1LFINupyBaOJqn3g8GLVLZoxVjYTU6AF5xReMjJ9wMhe97tIopCh-HDwZBooHiPjYloTAR8vDTSgtYYmtvJshRd9sGCDNJrlKgZ9-0C0]--></g></svg>