<svg xmlns="http://www.w3.org/2000/svg" xmlns:xlink="http://www.w3.org/1999/xlink" contentStyleType="text/css" height="366px" preserveAspectRatio="none" style="width:832px;height:366px;background:#FFFFFF;" version="1.1" viewBox="0 0 832 366" width="832px" zoomAndPan="magnify"><defs/><g><ellipse cx="305.2974" cy="20" fill="#222222" rx="10" ry="10" style="stroke:#222222;stroke-width:1.0;"/><rect fill="#F1F1F1" height="35.0938" rx="12.5" ry="12.5" style="stroke:#181818;stroke-width:0.5;" width="161.9199" x="224.3374" y="50"/><text fill="#000000" font-family="sans-serif" font-size="12" lengthAdjust="spacing" textLength="141.9199" x="234.3374" y="72.457">Display "Processing Page"</text><rect fill="#F1F1F1" height="35.0938" rx="12.5" ry="12.5" style="stroke:#181818;stroke-width:0.5;" width="190.7363" x="209.9292" y="105.0938"/><text fill="#000000" font-family="sans-serif" font-size="12" lengthAdjust="spacing" textLength="170.7363" x="219.9292" y="127.5508">Show circular progress indicator</text><path d="M496.2983,150.1875 L496.2983,175.7148 L476.2983,179.7148 L496.2983,183.7148 L496.2983,209.2422 A0,0 0 0 0 496.2983,209.2422 L752.1235,209.2422 A0,0 0 0 0 752.1235,209.2422 L752.1235,160.1875 L742.1235,150.1875 L496.2983,150.1875 A0,0 0 0 0 496.2983,150.1875 " fill="#FEFFDD" style="stroke:#181818;stroke-width:0.5;"/><path d="M742.1235,150.1875 L742.1235,160.1875 L752.1235,160.1875 L742.1235,150.1875 " fill="#FEFFDD" style="stroke:#181818;stroke-width:0.5;"/><text fill="#000000" font-family="sans-serif" font-size="13" lengthAdjust="spacing" textLength="200.1479" x="502.2983" y="168.6826">The circular progress indicator and</text><text fill="#000000" font-family="sans-serif" font-size="13" lengthAdjust="spacing" textLength="234.8252" x="502.2983" y="185.0342">message inform the user that the system</text><text fill="#000000" font-family="sans-serif" font-size="13" lengthAdjust="spacing" textLength="161.8652" x="502.2983" y="201.3857">is processing the document.</text><rect fill="#F1F1F1" height="35.0938" rx="12.5" ry="12.5" style="stroke:#181818;stroke-width:0.5;" width="342.002" x="134.2964" y="162.168"/><text fill="#000000" font-family="sans-serif" font-size="12" lengthAdjust="spacing" textLength="322.002" x="144.2964" y="184.625">Display message "Processing your document, please wait..."</text><polygon fill="#F1F1F1" points="251.1863,229.2422,359.4084,229.2422,371.4084,241.2422,359.4084,253.2422,251.1863,253.2422,239.1863,241.2422,251.1863,229.2422" style="stroke:#181818;stroke-width:0.5;"/><text fill="#000000" font-family="sans-serif" font-size="11" lengthAdjust="spacing" textLength="108.2222" x="251.1863" y="245.7432">Processing complete?</text><text fill="#000000" font-family="sans-serif" font-size="11" lengthAdjust="spacing" textLength="17.1177" x="222.0686" y="238.8252">yes</text><text fill="#000000" font-family="sans-serif" font-size="11" lengthAdjust="spacing" textLength="12.2354" x="371.4084" y="238.8252">no</text><rect fill="#F1F1F1" height="35.0938" rx="12.5" ry="12.5" style="stroke:#181818;stroke-width:0.5;" width="310.8125" x="11" y="263.2422"/><text fill="#000000" font-family="sans-serif" font-size="12" lengthAdjust="spacing" textLength="290.8125" x="21" y="285.6992">Navigate to success page or display success message</text><ellipse cx="166.4063" cy="336.9453" fill="none" rx="11" ry="11" style="stroke:#222222;stroke-width:1.0;"/><ellipse cx="166.4063" cy="336.9453" fill="#222222" rx="6" ry="6" style="stroke:#222222;stroke-width:1.0;"/><path d="M566.5645,263.2422 L566.5645,280.5938 L546.5645,284.5938 L566.5645,288.5938 L566.5645,305.9453 A0,0 0 0 0 566.5645,305.9453 L820.9614,305.9453 A0,0 0 0 0 820.9614,305.9453 L820.9614,273.2422 L810.9614,263.2422 L566.5645,263.2422 A0,0 0 0 0 566.5645,263.2422 " fill="#FEFFDD" style="stroke:#181818;stroke-width:0.5;"/><path d="M810.9614,263.2422 L810.9614,273.2422 L820.9614,273.2422 L810.9614,263.2422 " fill="#FEFFDD" style="stroke:#181818;stroke-width:0.5;"/><text fill="#000000" font-family="sans-serif" font-size="13" lengthAdjust="spacing" textLength="233.397" x="572.5645" y="281.7373">If an error occurs, display an appropriate</text><text fill="#000000" font-family="sans-serif" font-size="13" lengthAdjust="spacing" textLength="218.9497" x="572.5645" y="298.0889">message or provide an option to retry.</text><rect fill="#F1F1F1" height="35.0938" rx="12.5" ry="12.5" style="stroke:#181818;stroke-width:0.5;" width="204.752" x="341.8125" y="267.0469"/><text fill="#000000" font-family="sans-serif" font-size="12" lengthAdjust="spacing" textLength="184.752" x="351.8125" y="289.5039">Handle processing error or timeout</text><ellipse cx="444.1885" cy="344.5547" fill="none" rx="11" ry="11" style="stroke:#222222;stroke-width:1.0;"/><ellipse cx="444.1885" cy="344.5547" fill="#222222" rx="6" ry="6" style="stroke:#222222;stroke-width:1.0;"/><line style="stroke:#181818;stroke-width:1.0;" x1="305.2974" x2="305.2974" y1="30" y2="50"/><polygon fill="#181818" points="301.2974,40,305.2974,50,309.2974,40,305.2974,44" style="stroke:#181818;stroke-width:1.0;"/><line style="stroke:#181818;stroke-width:1.0;" x1="305.2974" x2="305.2974" y1="85.0938" y2="105.0938"/><polygon fill="#181818" points="301.2974,95.0938,305.2974,105.0938,309.2974,95.0938,305.2974,99.0938" style="stroke:#181818;stroke-width:1.0;"/><line style="stroke:#181818;stroke-width:1.0;" x1="305.2974" x2="305.2974" y1="140.1875" y2="162.168"/><polygon fill="#181818" points="301.2974,152.168,305.2974,162.168,309.2974,152.168,305.2974,156.168" style="stroke:#181818;stroke-width:1.0;"/><line style="stroke:#181818;stroke-width:1.0;" x1="166.4063" x2="166.4063" y1="298.3359" y2="325.9453"/><polygon fill="#181818" points="162.4063,315.9453,166.4063,325.9453,170.4063,315.9453,166.4063,319.9453" style="stroke:#181818;stroke-width:1.0;"/><line style="stroke:#181818;stroke-width:1.0;" x1="444.1885" x2="444.1885" y1="302.1406" y2="333.5547"/><polygon fill="#181818" points="440.1885,323.5547,444.1885,333.5547,448.1885,323.5547,444.1885,327.5547" style="stroke:#181818;stroke-width:1.0;"/><line style="stroke:#181818;stroke-width:1.0;" x1="239.1863" x2="166.4063" y1="241.2422" y2="241.2422"/><line style="stroke:#181818;stroke-width:1.0;" x1="166.4063" x2="166.4063" y1="241.2422" y2="263.2422"/><polygon fill="#181818" points="162.4063,253.2422,166.4063,263.2422,170.4063,253.2422,166.4063,257.2422" style="stroke:#181818;stroke-width:1.0;"/><line style="stroke:#181818;stroke-width:1.0;" x1="371.4084" x2="444.1885" y1="241.2422" y2="241.2422"/><line style="stroke:#181818;stroke-width:1.0;" x1="444.1885" x2="444.1885" y1="241.2422" y2="267.0469"/><polygon fill="#181818" points="440.1885,257.0469,444.1885,267.0469,448.1885,257.0469,444.1885,261.0469" style="stroke:#181818;stroke-width:1.0;"/><line style="stroke:#181818;stroke-width:1.0;" x1="305.2974" x2="305.2974" y1="197.2617" y2="229.2422"/><polygon fill="#181818" points="301.2974,219.2422,305.2974,229.2422,309.2974,219.2422,305.2974,223.2422" style="stroke:#181818;stroke-width:1.0;"/><!--SRC=[VP0nRiCm34LtdOB8b0213-0CNJgqIn6WlO0Wqmu1MnGeAe5lNyg8qcGfuC4s__zy_5czgElVAQVPhx0x2mVCcU84Pp_XxkJwxmlV8924Cdk193o9AO3YGC4ho-dFljZ0N2ynAnU1WKDPCEeHqem-8zmyQTTrbXzP4OIcYpg0dml-jmfy74pLrb0SMHPGCvMCOYzUjw-yPiN5b9HhIaEfeqRIEOm3rENEqGZx9-B0Yr4glXsg8y9-nNomiFxBNsdoXgiCkOIgXrH1Z6ouLz3-tnbFvilAoU5iL-yZRq4VTiUCpsWeOY7sA2t8HQllfHc0pz7ERy8GYkJZOwiDVBAu96HycxoLn5kHLngmgZWfSQm72AgidKaVFJHIQtjqlm00]--></g></svg>