<svg xmlns="http://www.w3.org/2000/svg" xmlns:xlink="http://www.w3.org/1999/xlink" contentStyleType="text/css" height="523px" preserveAspectRatio="none" style="width:1055px;height:523px;background:#FFFFFF;" version="1.1" viewBox="0 0 1055 523" width="1055px" zoomAndPan="magnify"><defs/><g><ellipse cx="739.9629" cy="20" fill="#222222" rx="10" ry="10" style="stroke:#222222;stroke-width:1.0;"/><rect fill="#F1F1F1" height="35.0938" rx="12.5" ry="12.5" style="stroke:#181818;stroke-width:0.5;" width="170.7324" x="654.5967" y="50"/><text fill="#000000" font-family="sans-serif" font-size="12" lengthAdjust="spacing" textLength="150.7324" x="664.5967" y="72.457">User selects a document file</text><polygon fill="#F1F1F1" points="697.4668,105.0938,782.459,105.0938,794.459,117.0938,782.459,129.0938,697.4668,129.0938,685.4668,117.0938,697.4668,105.0938" style="stroke:#181818;stroke-width:0.5;"/><text fill="#000000" font-family="sans-serif" font-size="11" lengthAdjust="spacing" textLength="84.9922" x="697.4668" y="121.5947">Is a file selected?</text><text fill="#000000" font-family="sans-serif" font-size="11" lengthAdjust="spacing" textLength="17.1177" x="668.3491" y="114.6768">yes</text><text fill="#000000" font-family="sans-serif" font-size="11" lengthAdjust="spacing" textLength="12.2354" x="794.459" y="114.6768">no</text><rect fill="#F1F1F1" height="35.0938" rx="12.5" ry="12.5" style="stroke:#181818;stroke-width:0.5;" width="188.0762" x="409.5027" y="139.0938"/><text fill="#000000" font-family="sans-serif" font-size="12" lengthAdjust="spacing" textLength="168.0762" x="419.5027" y="161.5508">User enters the version number</text><polygon fill="#F1F1F1" points="436.5874,194.1875,570.4941,194.1875,582.4941,206.1875,570.4941,218.1875,436.5874,218.1875,424.5874,206.1875,436.5874,194.1875" style="stroke:#181818;stroke-width:0.5;"/><text fill="#000000" font-family="sans-serif" font-size="11" lengthAdjust="spacing" textLength="133.9067" x="436.5874" y="210.6885">Is version number entered?</text><text fill="#000000" font-family="sans-serif" font-size="11" lengthAdjust="spacing" textLength="17.1177" x="407.4697" y="203.7705">yes</text><text fill="#000000" font-family="sans-serif" font-size="11" lengthAdjust="spacing" textLength="12.2354" x="582.4941" y="203.7705">no</text><rect fill="#F1F1F1" height="35.0938" rx="12.5" ry="12.5" style="stroke:#181818;stroke-width:0.5;" width="164.5801" x="152.4839" y="228.1875"/><text fill="#000000" font-family="sans-serif" font-size="12" lengthAdjust="spacing" textLength="144.5801" x="162.4839" y="250.6445">User clicks "Upload" button</text><path d="M405.5103,283.2813 L405.5103,300.6328 L385.5103,304.6328 L405.5103,308.6328 L405.5103,325.9844 A0,0 0 0 0 405.5103,325.9844 L644.5967,325.9844 A0,0 0 0 0 644.5967,325.9844 L644.5967,293.2813 L634.5967,283.2813 L405.5103,283.2813 A0,0 0 0 0 405.5103,283.2813 " fill="#FEFFDD" style="stroke:#181818;stroke-width:0.5;"/><path d="M634.5967,283.2813 L634.5967,293.2813 L644.5967,293.2813 L634.5967,283.2813 " fill="#FEFFDD" style="stroke:#181818;stroke-width:0.5;"/><text fill="#000000" font-family="sans-serif" font-size="13" lengthAdjust="spacing" textLength="213.7192" x="411.5103" y="301.7764">Snackbar shows "Upload successful"</text><text fill="#000000" font-family="sans-serif" font-size="13" lengthAdjust="spacing" textLength="218.0864" x="411.5103" y="318.1279">or "Upload failed" based on the result.</text><rect fill="#F1F1F1" height="35.0938" rx="12.5" ry="12.5" style="stroke:#181818;stroke-width:0.5;" width="301.4727" x="84.0376" y="287.0859"/><text fill="#000000" font-family="sans-serif" font-size="12" lengthAdjust="spacing" textLength="281.4727" x="94.0376" y="309.543">Component displays a snackbar for status messages</text><polygon fill="#F1F1F1" points="187.0813,345.9844,282.4666,345.9844,294.4666,357.9844,282.4666,369.9844,187.0813,369.9844,175.0813,357.9844,187.0813,345.9844" style="stroke:#181818;stroke-width:0.5;"/><text fill="#000000" font-family="sans-serif" font-size="11" lengthAdjust="spacing" textLength="95.3853" x="187.0813" y="362.4854">Upload successful?</text><text fill="#000000" font-family="sans-serif" font-size="11" lengthAdjust="spacing" textLength="17.1177" x="157.9636" y="355.5674">yes</text><text fill="#000000" font-family="sans-serif" font-size="11" lengthAdjust="spacing" textLength="12.2354" x="294.4666" y="355.5674">no</text><rect fill="#F1F1F1" height="35.0938" rx="12.5" ry="12.5" style="stroke:#181818;stroke-width:0.5;" width="220.6074" x="11" y="379.9844"/><text fill="#000000" font-family="sans-serif" font-size="12" lengthAdjust="spacing" textLength="200.6074" x="21" y="402.4414">Display "Upload successful" message</text><ellipse cx="121.3037" cy="446.0781" fill="none" rx="11" ry="11" style="stroke:#222222;stroke-width:1.0;"/><ellipse cx="121.3037" cy="446.0781" fill="#222222" rx="6" ry="6" style="stroke:#222222;stroke-width:1.0;"/><rect fill="#F1F1F1" height="35.0938" rx="12.5" ry="12.5" style="stroke:#181818;stroke-width:0.5;" width="193.2734" x="251.6074" y="379.9844"/><text fill="#000000" font-family="sans-serif" font-size="12" lengthAdjust="spacing" textLength="173.2734" x="261.6074" y="402.4414">Display "Upload failed" message</text><rect fill="#F1F1F1" height="35.0938" rx="12.5" ry="12.5" style="stroke:#181818;stroke-width:0.5;" width="110.0352" x="293.2266" y="435.0781"/><text fill="#000000" font-family="sans-serif" font-size="12" lengthAdjust="spacing" textLength="90.0352" x="303.2266" y="457.5352">Offer retry option</text><ellipse cx="348.2441" cy="501.1719" fill="none" rx="11" ry="11" style="stroke:#222222;stroke-width:1.0;"/><ellipse cx="348.2441" cy="501.1719" fill="#222222" rx="6" ry="6" style="stroke:#222222;stroke-width:1.0;"/><rect fill="#F1F1F1" height="35.0938" rx="12.5" ry="12.5" style="stroke:#181818;stroke-width:0.5;" width="215.4219" x="657.2648" y="228.1875"/><text fill="#000000" font-family="sans-serif" font-size="12" lengthAdjust="spacing" textLength="195.4219" x="667.2648" y="250.6445">Prompt user to enter version number</text><ellipse cx="764.9757" cy="294.2813" fill="none" rx="11" ry="11" style="stroke:#222222;stroke-width:1.0;"/><ellipse cx="764.9757" cy="294.2813" fill="#222222" rx="6" ry="6" style="stroke:#222222;stroke-width:1.0;"/><rect fill="#F1F1F1" height="35.0938" rx="12.5" ry="12.5" style="stroke:#181818;stroke-width:0.5;" width="162.0605" x="882.6866" y="139.0938"/><text fill="#000000" font-family="sans-serif" font-size="12" lengthAdjust="spacing" textLength="142.0605" x="892.6866" y="161.5508">Prompt user to select a file</text><ellipse cx="963.7169" cy="205.1875" fill="none" rx="11" ry="11" style="stroke:#222222;stroke-width:1.0;"/><ellipse cx="963.7169" cy="205.1875" fill="#222222" rx="6" ry="6" style="stroke:#222222;stroke-width:1.0;"/><line style="stroke:#181818;stroke-width:1.0;" x1="739.9629" x2="739.9629" y1="30" y2="50"/><polygon fill="#181818" points="735.9629,40,739.9629,50,743.9629,40,739.9629,44" style="stroke:#181818;stroke-width:1.0;"/><line style="stroke:#181818;stroke-width:1.0;" x1="234.7739" x2="234.7739" y1="263.2813" y2="287.0859"/><polygon fill="#181818" points="230.7739,277.0859,234.7739,287.0859,238.7739,277.0859,234.7739,281.0859" style="stroke:#181818;stroke-width:1.0;"/><line style="stroke:#181818;stroke-width:1.0;" x1="121.3037" x2="121.3037" y1="415.0781" y2="435.0781"/><polygon fill="#181818" points="117.3037,425.0781,121.3037,435.0781,125.3037,425.0781,121.3037,429.0781" style="stroke:#181818;stroke-width:1.0;"/><line style="stroke:#181818;stroke-width:1.0;" x1="348.2441" x2="348.2441" y1="415.0781" y2="435.0781"/><polygon fill="#181818" points="344.2441,425.0781,348.2441,435.0781,352.2441,425.0781,348.2441,429.0781" style="stroke:#181818;stroke-width:1.0;"/><line style="stroke:#181818;stroke-width:1.0;" x1="348.2441" x2="348.2441" y1="470.1719" y2="490.1719"/><polygon fill="#181818" points="344.2441,480.1719,348.2441,490.1719,352.2441,480.1719,348.2441,484.1719" style="stroke:#181818;stroke-width:1.0;"/><line style="stroke:#181818;stroke-width:1.0;" x1="175.0813" x2="121.3037" y1="357.9844" y2="357.9844"/><line style="stroke:#181818;stroke-width:1.0;" x1="121.3037" x2="121.3037" y1="357.9844" y2="379.9844"/><polygon fill="#181818" points="117.3037,369.9844,121.3037,379.9844,125.3037,369.9844,121.3037,373.9844" style="stroke:#181818;stroke-width:1.0;"/><line style="stroke:#181818;stroke-width:1.0;" x1="294.4666" x2="348.2441" y1="357.9844" y2="357.9844"/><line style="stroke:#181818;stroke-width:1.0;" x1="348.2441" x2="348.2441" y1="357.9844" y2="379.9844"/><polygon fill="#181818" points="344.2441,369.9844,348.2441,379.9844,352.2441,369.9844,348.2441,373.9844" style="stroke:#181818;stroke-width:1.0;"/><line style="stroke:#181818;stroke-width:1.0;" x1="234.7739" x2="234.7739" y1="322.1797" y2="345.9844"/><polygon fill="#181818" points="230.7739,335.9844,234.7739,345.9844,238.7739,335.9844,234.7739,339.9844" style="stroke:#181818;stroke-width:1.0;"/><line style="stroke:#181818;stroke-width:1.0;" x1="764.9757" x2="764.9757" y1="263.2813" y2="283.2813"/><polygon fill="#181818" points="760.9757,273.2813,764.9757,283.2813,768.9757,273.2813,764.9757,277.2813" style="stroke:#181818;stroke-width:1.0;"/><line style="stroke:#181818;stroke-width:1.0;" x1="424.5874" x2="234.7739" y1="206.1875" y2="206.1875"/><line style="stroke:#181818;stroke-width:1.0;" x1="234.7739" x2="234.7739" y1="206.1875" y2="228.1875"/><polygon fill="#181818" points="230.7739,218.1875,234.7739,228.1875,238.7739,218.1875,234.7739,222.1875" style="stroke:#181818;stroke-width:1.0;"/><line style="stroke:#181818;stroke-width:1.0;" x1="582.4941" x2="764.9757" y1="206.1875" y2="206.1875"/><line style="stroke:#181818;stroke-width:1.0;" x1="764.9757" x2="764.9757" y1="206.1875" y2="228.1875"/><polygon fill="#181818" points="760.9757,218.1875,764.9757,228.1875,768.9757,218.1875,764.9757,222.1875" style="stroke:#181818;stroke-width:1.0;"/><line style="stroke:#181818;stroke-width:1.0;" x1="503.5408" x2="503.5408" y1="174.1875" y2="194.1875"/><polygon fill="#181818" points="499.5408,184.1875,503.5408,194.1875,507.5408,184.1875,503.5408,188.1875" style="stroke:#181818;stroke-width:1.0;"/><line style="stroke:#181818;stroke-width:1.0;" x1="963.7169" x2="963.7169" y1="174.1875" y2="194.1875"/><polygon fill="#181818" points="959.7169,184.1875,963.7169,194.1875,967.7169,184.1875,963.7169,188.1875" style="stroke:#181818;stroke-width:1.0;"/><line style="stroke:#181818;stroke-width:1.0;" x1="685.4668" x2="503.5408" y1="117.0938" y2="117.0938"/><line style="stroke:#181818;stroke-width:1.0;" x1="503.5408" x2="503.5408" y1="117.0938" y2="139.0938"/><polygon fill="#181818" points="499.5408,129.0938,503.5408,139.0938,507.5408,129.0938,503.5408,133.0938" style="stroke:#181818;stroke-width:1.0;"/><line style="stroke:#181818;stroke-width:1.0;" x1="794.459" x2="963.7169" y1="117.0938" y2="117.0938"/><line style="stroke:#181818;stroke-width:1.0;" x1="963.7169" x2="963.7169" y1="117.0938" y2="139.0938"/><polygon fill="#181818" points="959.7169,129.0938,963.7169,139.0938,967.7169,129.0938,963.7169,133.0938" style="stroke:#181818;stroke-width:1.0;"/><line style="stroke:#181818;stroke-width:1.0;" x1="739.9629" x2="739.9629" y1="85.0938" y2="105.0938"/><polygon fill="#181818" points="735.9629,95.0938,739.9629,105.0938,743.9629,95.0938,739.9629,99.0938" style="stroke:#181818;stroke-width:1.0;"/><!--SRC=[TP8nRiCm34LtduBmb2mzW3rqQ9TEBL3a0B94nK9aqH2f5Bbz9SiEqYJTJ9F_aPyKYuhIT0V628mUjJ0eCAJJX470EezzuopiFih_4gvbQ5xt82C6s5sGzmr0XMGLHYuPEESFHm52cWQCVIvPGNyJLVB8suZQEtrYQ0-p9sLQ6988XRvMlD4qKoYZ6iUpLvSo9WUbJuEAO2cx4YM9OK9cTKIkka224Drnb2K4-DuaFDBFjHbmqZeBRVBjMfY9MzAgl8uoa68qaFqKqn4vUNbPgZ6OfLEpHCNy0_RHT3RrNgqycsBpqQ-rB3JNNfuHTe7-XMpJtW6wJslpaYDAl03DuhRLthA3SRQvxz5znRnyWLIE95JF-EJeLr35t4Bk4VLfhG-jQ1TbrVq2]--></g></svg>